  0
SECTION
  2
HEADER
  9
$ACADVER
  1
AC1014
  9
$HANDSEED
  5
FFFF
  9
$MEASUREMENT
 70
     1
  0
ENDSEC
  0
SECTION
  2
TABLES
  0
TABLE
  2
VPORT
  5
8
330
0
100
AcDbSymbolTable
 70
     4
  0
VPORT
  5
2E
330
8
100
AcDbSymbolTableRecord
100
AcDbViewportTableRecord
  2
*ACTIVE
 70
     0
 10
0.0
 20
0.0
 11
1.0
 21
1.0
 12
210.0
 22
148.5
 13
0.0
 23
0.0
 14
10.0
 24
10.0
 15
10.0
 25
10.0
 16
0.0
 26
0.0
 36
1.0
 17
0.0
 27
0.0
 37
0.0
 40
341.0
 41
1.24
 42
50.0
 43
0.0
 44
0.0
 50
0.0
 51
0.0
 71
     0
 72
   100
 73
     1
 74
     3
 75
     0
 76
     0
 77
     0
 78
     0
  0
ENDTAB
  0
TABLE
  2
LTYPE
  5
5
330
0
100
AcDbSymbolTable
 70
     1
  0
LTYPE
  5
14
330
5
100
AcDbSymbolTableRecord
100
AcDbLinetypeTableRecord
  2
BYBLOCK
 70
     0
  3

 72
    65
 73
     0
 40
0.0
  0
LTYPE
  5
15
330
5
100
AcDbSymbolTableRecord
100
AcDbLinetypeTableRecord
  2
BYLAYER
 70
     0
  3

 72
    65
 73
     0
 40
0.0
  0
LTYPE
  5
16
330
5
100
AcDbSymbolTableRecord
100
AcDbLinetypeTableRecord
  2
CONTINUOUS
 70
     0
  3
Solid line
 72
    65
 73
     0
 40
0.0
  0
ENDTAB
  0
TABLE
  2
LAYER
  5
2
100
AcDbSymbolTable
 70
3
  0
LAYER
  5
50
100
AcDbSymbolTableRecord
100
AcDbLayerTableRecord
  2
0
 70
0
  6
CONTINUOUS
  0
LAYER
  5
51
100
AcDbSymbolTableRecord
100
AcDbLayerTableRecord
  2
Engrave
 70
0
  6
CONTINUOUS
  0
LAYER
  5
52
100
AcDbSymbolTableRecord
100
AcDbLayerTableRecord
  2
Layer_1
 70
0
  6
CONTINUOUS
  0
ENDTAB
  0
TABLE
  2
STYLE
  5
3
330
0
100
AcDbSymbolTable
 70
     1
  0
STYLE
  5
11
330
3
100
AcDbSymbolTableRecord
100
AcDbTextStyleTableRecord
  2
STANDARD
 70
     0
 40
0.0
 41
1.0
 50
0.0
 71
     0
 42
2.5
  3
txt
  4

  0
ENDTAB
  0
TABLE
  2
VIEW
  5
6
330
0
100
AcDbSymbolTable
 70
     0
  0
ENDTAB
  0
TABLE
  2
UCS
  5
7
330
0
100
AcDbSymbolTable
 70
     0
  0
ENDTAB
  0
TABLE
  2
APPID
  5
9
330
0
100
AcDbSymbolTable
 70
     2
  0
APPID
  5
12
330
9
100
AcDbSymbolTableRecord
100
AcDbRegAppTableRecord
  2
ACAD
 70
     0
  0
ENDTAB
  0
TABLE
  2
DIMSTYLE
  5
A
330
0
100
AcDbSymbolTable
 70
     1
  0
DIMSTYLE
105
27
330
A
100
AcDbSymbolTableRecord
100
AcDbDimStyleTableRecord
  2
ISO-25
 70
     0
  3

  4

  5

  6

  7

 40
1.0
 41
2.5
 42
0.625
 43
3.75
 44
1.25
 45
0.0
 46
0.0
 47
0.0
 48
0.0
140
2.5
141
2.5
142
0.0
143
0.03937007874016
144
1.0
145
0.0
146
1.0
147
0.625
 71
     0
 72
     0
 73
     0
 74
     0
 75
     0
 76
     0
 77
     1
 78
     8
170
     0
171
     3
172
     1
173
     0
174
     0
175
     0
176
     0
177
     0
178
     0
270
     2
271
     2
272
     2
273
     2
274
     3
340
11
275
     0
280
     0
281
     0
282
     0
283
     0
284
     8
285
     0
286
     0
287
     3
288
     0
  0
ENDTAB
  0
TABLE
  2
BLOCK_RECORD
  5
1
330
0
100
AcDbSymbolTable
 70
     1
  0
BLOCK_RECORD
  5
1F
330
1
100
AcDbSymbolTableRecord
100
AcDbBlockTableRecord
  2
*MODEL_SPACE
  0
BLOCK_RECORD
  5
1B
330
1
100
AcDbSymbolTableRecord
100
AcDbBlockTableRecord
  2
*PAPER_SPACE
  0
ENDTAB
  0
ENDSEC
  0
SECTION
  2
BLOCKS
  0
BLOCK
  5
20
330
1F
100
AcDbEntity
  8
0
100
AcDbBlockBegin
  2
*MODEL_SPACE
 70
     0
 10
0.0
 20
0.0
 30
0.0
  3
*MODEL_SPACE
  1

  0
ENDBLK
  5
21
330
1F
100
AcDbEntity
  8
0
100
AcDbBlockEnd
  0
BLOCK
  5
1C
330
1B
100
AcDbEntity
 67
     1
  8
0
100
AcDbBlockBegin
  2
*PAPER_SPACE
  1

  0
ENDBLK
  5
1D
330
1B
100
AcDbEntity
 67
     1
  8
0
100
AcDbBlockEnd
  0
ENDSEC
  0
SECTION
  2
ENTITIES
  0
SPLINE
  5
100
100
AcDbEntity
  8
Layer_1
 62
1
100
AcDbSpline
 70
8
 71
3
 72
8
 73
4
 74
0
 40
0
 40
0
 40
0
 40
0
 40
1
 40
1
 40
1
 40
1
 10
51.159218
 20
2.898737
 30
0.0
 10
51.170468
 20
2.877567
 30
0.0
 10
51.181708
 20
2.856377
 30
0.0
 10
51.194678
 20
2.836247
 30
0.0
  0
SPLINE
  5
101
100
AcDbEntity
  8
Layer_1
 62
1
100
AcDbSpline
 70
8
 71
3
 72
8
 73
4
 74
0
 40
0
 40
0
 40
0
 40
0
 40
1
 40
1
 40
1
 40
1
 10
51.194678
 20
2.836247
 30
0.0
 10
51.206898
 20
2.817197
 30
0.0
 10
51.220658
 20
2.799177
 30
0.0
 10
51.235538
 20
2.782167
 30
0.0
  0
SPLINE
  5
102
100
AcDbEntity
  8
Layer_1
 62
1
100
AcDbSpline
 70
8
 71
3
 72
8
 73
4
 74
0
 40
0
 40
0
 40
0
 40
0
 40
1
 40
1
 40
1
 40
1
 10
51.235538
 20
2.782167
 30
0.0
 10
51.249908
 20
2.765767
 30
0.0
 10
51.265368
 20
2.750257
 30
0.0
 10
51.281818
 20
2.735887
 30
0.0
  0
SPLINE
  5
103
100
AcDbEntity
  8
Layer_1
 62
1
100
AcDbSpline
 70
8
 71
3
 72
8
 73
4
 74
0
 40
0
 40
0
 40
0
 40
0
 40
1
 40
1
 40
1
 40
1
 10
51.281818
 20
2.735887
 30
0.0
 10
51.297878
 20
2.721867
 30
0.0
 10
51.314898
 20
2.708847
 30
0.0
 10
51.332898
 20
2.697417
 30
0.0
  0
SPLINE
  5
104
100
AcDbEntity
  8
Layer_1
 62
1
100
AcDbSpline
 70
8
 71
3
 72
8
 73
4
 74
0
 40
0
 40
0
 40
0
 40
0
 40
1
 40
1
 40
1
 40
1
 10
51.332898
 20
2.697417
 30
0.0
 10
51.350518
 20
2.686307
 30
0.0
 10
51.369108
 20
2.676517
 30
0.0
 10
51.388188
 20
2.667967
 30
0.0
  0
SPLINE
  5
105
100
AcDbEntity
  8
Layer_1
 62
1
100
AcDbSpline
 70
8
 71
3
 72
8
 73
4
 74
0
 40
0
 40
0
 40
0
 40
0
 40
1
 40
1
 40
1
 40
1
 10
51.388188
 20
2.667967
 30
0.0
 10
51.407128
 20
2.659467
 30
0.0
 10
51.426558
 20
2.652097
 30
0.0
 10
51.446478
 20
2.646267
 30
0.0
  0
SPLINE
  5
106
100
AcDbEntity
  8
Layer_1
 62
1
100
AcDbSpline
 70
8
 71
3
 72
8
 73
4
 74
0
 40
0
 40
0
 40
0
 40
0
 40
1
 40
1
 40
1
 40
1
 10
51.446478
 20
2.646267
 30
0.0
 10
51.466538
 20
2.640467
 30
0.0
 10
51.487068
 20
2.636217
 30
0.0
 10
51.507778
 20
2.633567
 30
0.0
  0
SPLINE
  5
107
100
AcDbEntity
  8
Layer_1
 62
1
100
AcDbSpline
 70
8
 71
3
 72
8
 73
4
 74
0
 40
0
 40
0
 40
0
 40
0
 40
1
 40
1
 40
1
 40
1
 10
51.507778
 20
2.633567
 30
0.0
 10
51.528888
 20
2.630967
 30
0.0
 10
51.550188
 20
2.630167
 30
0.0
 10
51.571478
 20
2.629367
 30
0.0
  0
SPLINE
  5
108
100
AcDbEntity
  8
Layer_1
 62
1
100
AcDbSpline
 70
8
 71
3
 72
8
 73
4
 74
0
 40
0
 40
0
 40
0
 40
0
 40
1
 40
1
 40
1
 40
1
 10
52.005372
 20
3.116304
 30
0.0
 10
52.005107
 20
3.133234
 30
0.0
 10
52.004578
 20
3.150384
 30
0.0
 10
52.003472
 20
3.167374
 30
0.0
  0
SPLINE
  5
109
100
AcDbEntity
  8
Layer_1
 62
1
100
AcDbSpline
 70
8
 71
3
 72
8
 73
4
 74
0
 40
0
 40
0
 40
0
 40
0
 40
1
 40
1
 40
1
 40
1
 10
52.003472
 20
3.167374
 30
0.0
 10
52.002372
 20
3.183514
 30
0.0
 10
52.000572
 20
3.199524
 30
0.0
 10
51.998072
 20
3.215444
 30
0.0
  0
SPLINE
  5
10a
100
AcDbEntity
  8
Layer_1
 62
1
100
AcDbSpline
 70
8
 71
3
 72
8
 73
4
 74
0
 40
0
 40
0
 40
0
 40
0
 40
1
 40
1
 40
1
 40
1
 10
51.998072
 20
3.215444
 30
0.0
 10
51.995672
 20
3.231054
 30
0.0
 10
51.992372
 20
3.246454
 30
0.0
 10
51.988472
 20
3.261714
 30
0.0
  0
SPLINE
  5
10b
100
AcDbEntity
  8
Layer_1
 62
1
100
AcDbSpline
 70
8
 71
3
 72
8
 73
4
 74
0
 40
0
 40
0
 40
0
 40
0
 40
1
 40
1
 40
1
 40
1
 10
51.988472
 20
3.261714
 30
0.0
 10
51.984672
 20
3.276534
 30
0.0
 10
51.980372
 20
3.291194
 30
0.0
 10
51.975242
 20
3.305584
 30
0.0
  0
SPLINE
  5
10c
100
AcDbEntity
  8
Layer_1
 62
1
100
AcDbSpline
 70
8
 71
3
 72
8
 73
4
 74
0
 40
0
 40
0
 40
0
 40
0
 40
1
 40
1
 40
1
 40
1
 10
51.975242
 20
3.305584
 30
0.0
 10
51.970342
 20
3.319604
 30
0.0
 10
51.964682
 20
3.333524
 30
0.0
 10
51.958412
 20
3.347074
 30
0.0
  0
SPLINE
  5
10d
100
AcDbEntity
  8
Layer_1
 62
1
100
AcDbSpline
 70
8
 71
3
 72
8
 73
4
 74
0
 40
0
 40
0
 40
0
 40
0
 40
1
 40
1
 40
1
 40
1
 10
51.958412
 20
3.347074
 30
0.0
 10
51.952212
 20
3.360304
 30
0.0
 10
51.945422
 20
3.373534
 30
0.0
 10
51.937982
 20
3.386124
 30
0.0
  0
SPLINE
  5
10e
100
AcDbEntity
  8
Layer_1
 62
1
100
AcDbSpline
 70
8
 71
3
 72
8
 73
4
 74
0
 40
0
 40
0
 40
0
 40
0
 40
1
 40
1
 40
1
 40
1
 10
51.937982
 20
3.386124
 30
0.0
 10
51.930482
 20
3.399094
 30
0.0
 10
51.922242
 20
3.411524
 30
0.0
 10
51.913352
 20
3.423374
 30
0.0
  0
SPLINE
  5
10f
100
AcDbEntity
  8
Layer_1
 62
1
100
AcDbSpline
 70
8
 71
3
 72
8
 73
4
 74
0
 40
0
 40
0
 40
0
 40
0
 40
1
 40
1
 40
1
 40
1
 10
51.913352
 20
3.423374
 30
0.0
 10
51.904552
 20
3.435284
 30
0.0
 10
51.895012
 20
3.446654
 30
0.0
 10
51.885102
 20
3.457634
 30
0.0
  0
SPLINE
  5
110
100
AcDbEntity
  8
Layer_1
 62
1
100
AcDbSpline
 70
8
 71
3
 72
8
 73
4
 74
0
 40
0
 40
0
 40
0
 40
0
 40
1
 40
1
 40
1
 40
1
 10
51.885102
 20
3.457634
 30
0.0
 10
51.875302
 20
3.468484
 30
0.0
 10
51.865152
 20
3.479064
 30
0.0
 10
51.854452
 20
3.488884
 30
0.0
  0
SPLINE
  5
111
100
AcDbEntity
  8
Layer_1
 62
1
100
AcDbSpline
 70
8
 71
3
 72
8
 73
4
 74
0
 40
0
 40
0
 40
0
 40
0
 40
1
 40
1
 40
1
 40
1
 10
51.854452
 20
3.488884
 30
0.0
 10
51.844132
 20
3.498384
 30
0.0
 10
51.833312
 20
3.507674
 30
0.0
 10
51.822002
 20
3.515924
 30
0.0
  0
SPLINE
  5
112
100
AcDbEntity
  8
Layer_1
 62
1
100
AcDbSpline
 70
8
 71
3
 72
8
 73
4
 74
0
 40
0
 40
0
 40
0
 40
0
 40
1
 40
1
 40
1
 40
1
 10
51.822002
 20
3.515924
 30
0.0
 10
51.810992
 20
3.524124
 30
0.0
 10
51.799482
 20
3.531534
 30
0.0
 10
51.787742
 20
3.538674
 30
0.0
  0
SPLINE
  5
113
100
AcDbEntity
  8
Layer_1
 62
1
100
AcDbSpline
 70
8
 71
3
 72
8
 73
4
 74
0
 40
0
 40
0
 40
0
 40
0
 40
1
 40
1
 40
1
 40
1
 10
51.787742
 20
3.538674
 30
0.0
 10
51.776232
 20
3.545574
 30
0.0
 10
51.764482
 20
3.552164
 30
0.0
 10
51.752282
 20
3.557994
 30
0.0
  0
SPLINE
  5
114
100
AcDbEntity
  8
Layer_1
 62
1
100
AcDbSpline
 70
8
 71
3
 72
8
 73
4
 74
0
 40
0
 40
0
 40
0
 40
0
 40
1
 40
1
 40
1
 40
1
 10
51.752282
 20
3.557994
 30
0.0
 10
51.740212
 20
3.563594
 30
0.0
 10
51.727732
 20
3.568314
 30
0.0
 10
51.715022
 20
3.572544
 30
0.0
  0
SPLINE
  5
115
100
AcDbEntity
  8
Layer_1
 62
1
100
AcDbSpline
 70
8
 71
3
 72
8
 73
4
 74
0
 40
0
 40
0
 40
0
 40
0
 40
1
 40
1
 40
1
 40
1
 10
51.715022
 20
3.572544
 30
0.0
 10
51.702192
 20
3.576544
 30
0.0
 10
51.689122
 20
3.579944
 30
0.0
 10
51.675962
 20
3.582864
 30
0.0
  0
SPLINE
  5
116
100
AcDbEntity
  8
Layer_1
 62
1
100
AcDbSpline
 70
8
 71
3
 72
8
 73
4
 74
0
 40
0
 40
0
 40
0
 40
0
 40
1
 40
1
 40
1
 40
1
 10
51.675962
 20
3.582864
 30
0.0
 10
51.662652
 20
3.585764
 30
0.0
 10
51.649222
 20
3.588164
 30
0.0
 10
51.635702
 20
3.589464
 30
0.0
  0
SPLINE
  5
117
100
AcDbEntity
  8
Layer_1
 62
1
100
AcDbSpline
 70
8
 71
3
 72
8
 73
4
 74
0
 40
0
 40
0
 40
0
 40
0
 40
1
 40
1
 40
1
 40
1
 10
51.635702
 20
3.589464
 30
0.0
 10
51.621762
 20
3.592064
 30
0.0
 10
51.607692
 20
3.592064
 30
0.0
 10
51.593632
 20
3.592064
 30
0.0
  0
SPLINE
  5
118
100
AcDbEntity
  8
Layer_1
 62
1
100
AcDbSpline
 70
8
 71
3
 72
8
 73
4
 74
0
 40
0
 40
0
 40
0
 40
0
 40
1
 40
1
 40
1
 40
1
 10
51.634579
 20
4.129526
 30
0.0
 10
51.666479
 20
4.129526
 30
0.0
 10
51.698379
 20
4.126926
 30
0.0
 10
51.730129
 20
4.125326
 30
0.0
  0
SPLINE
  5
119
100
AcDbEntity
  8
Layer_1
 62
1
100
AcDbSpline
 70
8
 71
3
 72
8
 73
4
 74
0
 40
0
 40
0
 40
0
 40
0
 40
1
 40
1
 40
1
 40
1
 10
51.730129
 20
4.125326
 30
0.0
 10
51.760969
 20
4.122726
 30
0.0
 10
51.791669
 20
4.118226
 30
0.0
 10
51.822079
 20
4.112096
 30
0.0
  0
SPLINE
  5
11a
100
AcDbEntity
  8
Layer_1
 62
1
100
AcDbSpline
 70
8
 71
3
 72
8
 73
4
 74
0
 40
0
 40
0
 40
0
 40
0
 40
1
 40
1
 40
1
 40
1
 10
51.822079
 20
4.112096
 30
0.0
 10
51.851469
 20
4.106296
 30
0.0
 10
51.880579
 20
4.099136
 30
0.0
 10
51.909219
 20
4.090396
 30
0.0
  0
SPLINE
  5
11b
100
AcDbEntity
  8
Layer_1
 62
1
100
AcDbSpline
 70
8
 71
3
 72
8
 73
4
 74
0
 40
0
 40
0
 40
0
 40
0
 40
1
 40
1
 40
1
 40
1
 10
51.909219
 20
4.090396
 30
0.0
 10
51.937599
 20
4.081696
 30
0.0
 10
51.965519
 20
4.071606
 30
0.0
 10
51.992749
 20
4.059756
 30
0.0
  0
SPLINE
  5
11c
100
AcDbEntity
  8
Layer_1
 62
1
100
AcDbSpline
 70
8
 71
3
 72
8
 73
4
 74
0
 40
0
 40
0
 40
0
 40
0
 40
1
 40
1
 40
1
 40
1
 10
51.992749
 20
4.059756
 30
0.0
 10
52.019899
 20
4.048116
 30
0.0
 10
52.046369
 20
4.034626
 30
0.0
 10
52.072079
 20
4.020096
 30
0.0
  0
SPLINE
  5
11d
100
AcDbEntity
  8
Layer_1
 62
1
100
AcDbSpline
 70
8
 71
3
 72
8
 73
4
 74
0
 40
0
 40
0
 40
0
 40
0
 40
1
 40
1
 40
1
 40
1
 10
52.072079
 20
4.020096
 30
0.0
 10
52.097929
 20
4.005276
 30
0.0
 10
52.123009
 20
3.989296
 30
0.0
 10
52.147199
 20
3.972026
 30
0.0
  0
SPLINE
  5
11e
100
AcDbEntity
  8
Layer_1
 62
1
100
AcDbSpline
 70
8
 71
3
 72
8
 73
4
 74
0
 40
0
 40
0
 40
0
 40
0
 40
1
 40
1
 40
1
 40
1
 10
52.147199
 20
3.972026
 30
0.0
 10
52.171809
 20
3.954566
 30
0.0
 10
52.195489
 20
3.935566
 30
0.0
 10
52.218109
 20
3.915536
 30
0.0
  0
SPLINE
  5
11f
100
AcDbEntity
  8
Layer_1
 62
1
100
AcDbSpline
 70
8
 71
3
 72
8
 73
4
 74
0
 40
0
 40
0
 40
0
 40
0
 40
1
 40
1
 40
1
 40
1
 10
52.218109
 20
3.915536
 30
0.0
 10
52.241449
 20
3.894896
 30
0.0
 10
52.263629
 20
3.872906
 30
0.0
 10
52.284819
 20
3.850026
 30
0.0
  0
SPLINE
  5
120
100
AcDbEntity
  8
Layer_1
 62
1
100
AcDbSpline
 70
8
 71
3
 72
8
 73
4
 74
0
 40
0
 40
0
 40
0
 40
0
 40
1
 40
1
 40
1
 40
1
 10
52.284819
 20
3.850026
 30
0.0
 10
52.306169
 20
3.827006
 30
0.0
 10
52.326509
 20
3.802926
 30
0.0
 10
52.345519
 20
3.777896
 30
0.0
  0
SPLINE
  5
121
100
AcDbEntity
  8
Layer_1
 62
1
100
AcDbSpline
 70
8
 71
3
 72
8
 73
4
 74
0
 40
0
 40
0
 40
0
 40
0
 40
1
 40
1
 40
1
 40
1
 10
52.345519
 20
3.777896
 30
0.0
 10
52.364439
 20
3.753026
 30
0.0
 10
52.382069
 20
3.727066
 30
0.0
 10
52.398409
 20
3.700376
 30
0.0
  0
SPLINE
  5
122
100
AcDbEntity
  8
Layer_1
 62
1
100
AcDbSpline
 70
8
 71
3
 72
8
 73
4
 74
0
 40
0
 40
0
 40
0
 40
0
 40
1
 40
1
 40
1
 40
1
 10
52.398409
 20
3.700376
 30
0.0
 10
52.414599
 20
3.673916
 30
0.0
 10
52.429519
 20
3.646636
 30
0.0
 10
52.442879
 20
3.618646
 30
0.0
  0
SPLINE
  5
123
100
AcDbEntity
  8
Layer_1
 62
1
100
AcDbSpline
 70
8
 71
3
 72
8
 73
4
 74
0
 40
0
 40
0
 40
0
 40
0
 40
1
 40
1
 40
1
 40
1
 10
52.442879
 20
3.618646
 30
0.0
 10
52.456429
 20
3.590256
 30
0.0
 10
52.468329
 20
3.561126
 30
0.0
 10
52.478939
 20
3.531516
 30
0.0
  0
SPLINE
  5
124
100
AcDbEntity
  8
Layer_1
 62
1
100
AcDbSpline
 70
8
 71
3
 72
8
 73
4
 74
0
 40
0
 40
0
 40
0
 40
0
 40
1
 40
1
 40
1
 40
1
 10
52.478939
 20
3.531516
 30
0.0
 10
52.489739
 20
3.501306
 30
0.0
 10
52.499149
 20
3.470606
 30
0.0
 10
52.507179
 20
3.439546
 30
0.0
  0
SPLINE
  5
125
100
AcDbEntity
  8
Layer_1
 62
1
100
AcDbSpline
 70
8
 71
3
 72
8
 73
4
 74
0
 40
0
 40
0
 40
0
 40
0
 40
1
 40
1
 40
1
 40
1
 10
52.507179
 20
3.439546
 30
0.0
 10
52.515479
 20
3.407636
 30
0.0
 10
52.522239
 20
3.375336
 30
0.0
 10
52.527609
 20
3.342816
 30
0.0
  0
SPLINE
  5
126
100
AcDbEntity
  8
Layer_1
 62
1
100
AcDbSpline
 70
8
 71
3
 72
8
 73
4
 74
0
 40
0
 40
0
 40
0
 40
0
 40
1
 40
1
 40
1
 40
1
 10
52.527609
 20
3.342816
 30
0.0
 10
52.533209
 20
3.309156
 30
0.0
 10
52.537209
 20
3.275236
 30
0.0
 10
52.539619
 20
3.241242
 30
0.0
  0
SPLINE
  5
127
100
AcDbEntity
  8
Layer_1
 62
1
100
AcDbSpline
 70
8
 71
3
 72
8
 73
4
 74
0
 40
0
 40
0
 40
0
 40
0
 40
1
 40
1
 40
1
 40
1
 10
52.539619
 20
3.241242
 30
0.0
 10
52.542219
 20
3.205842
 30
0.0
 10
52.543019
 20
3.170362
 30
0.0
 10
52.543819
 20
3.134879
 30
0.0
  0
SPLINE
  5
128
100
AcDbEntity
  8
Layer_1
 62
1
100
AcDbSpline
 70
8
 71
3
 72
8
 73
4
 74
0
 40
0
 40
0
 40
0
 40
0
 40
1
 40
1
 40
1
 40
1
 10
51.571479
 20
2.629524
 30
0.0
 10
51.586319
 20
2.629524
 30
0.0
 10
51.601159
 20
2.629524
 30
0.0
 10
51.615949
 20
2.632124
 30
0.0
  0
SPLINE
  5
129
100
AcDbEntity
  8
Layer_1
 62
1
100
AcDbSpline
 70
8
 71
3
 72
8
 73
4
 74
0
 40
0
 40
0
 40
0
 40
0
 40
1
 40
1
 40
1
 40
1
 10
51.615949
 20
2.632124
 30
0.0
 10
51.630259
 20
2.632124
 30
0.0
 10
51.644529
 20
2.635324
 30
0.0
 10
51.658619
 20
2.638224
 30
0.0
  0
SPLINE
  5
12a
100
AcDbEntity
  8
Layer_1
 62
1
100
AcDbSpline
 70
8
 71
3
 72
8
 73
4
 74
0
 40
0
 40
0
 40
0
 40
0
 40
1
 40
1
 40
1
 40
1
 10
51.658619
 20
2.638224
 30
0.0
 10
51.672429
 20
2.641124
 30
0.0
 10
51.686089
 20
2.644624
 30
0.0
 10
51.699489
 20
2.649074
 30
0.0
  0
SPLINE
  5
12b
100
AcDbEntity
  8
Layer_1
 62
1
100
AcDbSpline
 70
8
 71
3
 72
8
 73
4
 74
0
 40
0
 40
0
 40
0
 40
0
 40
1
 40
1
 40
1
 40
1
 10
51.699489
 20
2.649074
 30
0.0
 10
51.712749
 20
2.653274
 30
0.0
 10
51.725789
 20
2.658374
 30
0.0
 10
51.738549
 20
2.664154
 30
0.0
  0
SPLINE
  5
12c
100
AcDbEntity
  8
Layer_1
 62
1
100
AcDbSpline
 70
8
 71
3
 72
8
 73
4
 74
0
 40
0
 40
0
 40
0
 40
0
 40
1
 40
1
 40
1
 40
1
 10
51.738549
 20
2.664154
 30
0.0
 10
51.751509
 20
2.669954
 30
0.0
 10
51.764189
 20
2.676324
 30
0.0
 10
51.776409
 20
2.683474
 30
0.0
  0
SPLINE
  5
12d
100
AcDbEntity
  8
Layer_1
 62
1
100
AcDbSpline
 70
8
 71
3
 72
8
 73
4
 74
0
 40
0
 40
0
 40
0
 40
0
 40
1
 40
1
 40
1
 40
1
 10
51.776409
 20
2.683474
 30
0.0
 10
51.788659
 20
2.690574
 30
0.0
 10
51.800429
 20
2.698554
 30
0.0
 10
51.811869
 20
2.707024
 30
0.0
  0
SPLINE
  5
12e
100
AcDbEntity
  8
Layer_1
 62
1
100
AcDbSpline
 70
8
 71
3
 72
8
 73
4
 74
0
 40
0
 40
0
 40
0
 40
0
 40
1
 40
1
 40
1
 40
1
 10
51.811869
 20
2.707024
 30
0.0
 10
51.823699
 20
2.715724
 30
0.0
 10
51.835149
 20
2.725014
 30
0.0
 10
51.846129
 20
2.734674
 30
0.0
  0
SPLINE
  5
12f
100
AcDbEntity
  8
Layer_1
 62
1
100
AcDbSpline
 70
8
 71
3
 72
8
 73
4
 74
0
 40
0
 40
0
 40
0
 40
0
 40
1
 40
1
 40
1
 40
1
 10
51.846129
 20
2.734674
 30
0.0
 10
51.857449
 20
2.744724
 30
0.0
 10
51.868299
 20
2.755314
 30
0.0
 10
51.878579
 20
2.766534
 30
0.0
  0
SPLINE
  5
130
100
AcDbEntity
  8
Layer_1
 62
1
100
AcDbSpline
 70
8
 71
3
 72
8
 73
4
 74
0
 40
0
 40
0
 40
0
 40
0
 40
1
 40
1
 40
1
 40
1
 10
51.878579
 20
2.766534
 30
0.0
 10
51.888979
 20
2.777914
 30
0.0
 10
51.898819
 20
2.789554
 30
0.0
 10
51.908029
 20
2.801984
 30
0.0
  0
SPLINE
  5
131
100
AcDbEntity
  8
Layer_1
 62
1
100
AcDbSpline
 70
8
 71
3
 72
8
 73
4
 74
0
 40
0
 40
0
 40
0
 40
0
 40
1
 40
1
 40
1
 40
1
 10
51.908029
 20
2.801984
 30
0.0
 10
51.917229
 20
2.814154
 30
0.0
 10
51.925759
 20
2.826854
 30
0.0
 10
51.933879
 20
2.839844
 30
0.0
  0
SPLINE
  5
132
100
AcDbEntity
  8
Layer_1
 62
1
100
AcDbSpline
 70
8
 71
3
 72
8
 73
4
 74
0
 40
0
 40
0
 40
0
 40
0
 40
1
 40
1
 40
1
 40
1
 10
51.933879
 20
2.839844
 30
0.0
 10
51.941879
 20
2.852804
 30
0.0
 10
51.949519
 20
2.865774
 30
0.0
 10
51.956109
 20
2.879504
 30
0.0
  0
SPLINE
  5
133
100
AcDbEntity
  8
Layer_1
 62
1
100
AcDbSpline
 70
8
 71
3
 72
8
 73
4
 74
0
 40
0
 40
0
 40
0
 40
0
 40
1
 40
1
 40
1
 40
1
 10
51.956109
 20
2.879504
 30
0.0
 10
51.962809
 20
2.893264
 30
0.0
 10
51.968439
 20
2.907654
 30
0.0
 10
51.973549
 20
2.922154
 30
0.0
  0
SPLINE
  5
134
100
AcDbEntity
  8
Layer_1
 62
1
100
AcDbSpline
 70
8
 71
3
 72
8
 73
4
 74
0
 40
0
 40
0
 40
0
 40
0
 40
1
 40
1
 40
1
 40
1
 10
51.973549
 20
2.922154
 30
0.0
 10
51.978749
 20
2.936974
 30
0.0
 10
51.983349
 20
2.952024
 30
0.0
 10
51.987359
 20
2.967244
 30
0.0
  0
SPLINE
  5
135
100
AcDbEntity
  8
Layer_1
 62
1
100
AcDbSpline
 70
8
 71
3
 72
8
 73
4
 74
0
 40
0
 40
0
 40
0
 40
0
 40
1
 40
1
 40
1
 40
1
 10
51.987359
 20
2.967244
 30
0.0
 10
51.991459
 20
2.982854
 30
0.0
 10
51.994859
 20
2.998754
 30
0.0
 10
51.997569
 20
3.014714
 30
0.0
  0
SPLINE
  5
136
100
AcDbEntity
  8
Layer_1
 62
1
100
AcDbSpline
 70
8
 71
3
 72
8
 73
4
 74
0
 40
0
 40
0
 40
0
 40
0
 40
1
 40
1
 40
1
 40
1
 10
51.997569
 20
3.014714
 30
0.0
 10
52.000369
 20
3.031114
 30
0.0
 10
52.002369
 20
3.047894
 30
0.0
 10
52.003569
 20
3.064614
 30
0.0
  0
SPLINE
  5
137
100
AcDbEntity
  8
Layer_1
 62
1
100
AcDbSpline
 70
8
 71
3
 72
8
 73
4
 74
0
 40
0
 40
0
 40
0
 40
0
 40
1
 40
1
 40
1
 40
1
 10
52.003569
 20
3.064614
 30
0.0
 10
52.004869
 20
3.082074
 30
0.0
 10
52.005169
 20
3.099434
 30
0.0
 10
52.005469
 20
3.116894
 30
0.0
  0
SPLINE
  5
138
100
AcDbEntity
  8
Layer_1
 62
1
100
AcDbSpline
 70
8
 71
3
 72
8
 73
4
 74
0
 40
0
 40
0
 40
0
 40
0
 40
1
 40
1
 40
1
 40
1
 10
52.543833
 20
3.134931
 30
0.0
 10
52.542733
 20
3.099031
 30
0.0
 10
52.541733
 20
3.063151
 30
0.0
 10
52.539033
 20
3.027351
 30
0.0
  0
SPLINE
  5
139
100
AcDbEntity
  8
Layer_1
 62
1
100
AcDbSpline
 70
8
 71
3
 72
8
 73
4
 74
0
 40
0
 40
0
 40
0
 40
0
 40
1
 40
1
 40
1
 40
1
 10
52.539033
 20
3.027351
 30
0.0
 10
52.536333
 20
2.992531
 30
0.0
 10
52.531933
 20
2.957791
 30
0.0
 10
52.525803
 20
2.923396
 30
0.0
  0
SPLINE
  5
13a
100
AcDbEntity
  8
Layer_1
 62
1
100
AcDbSpline
 70
8
 71
3
 72
8
 73
4
 74
0
 40
0
 40
0
 40
0
 40
0
 40
1
 40
1
 40
1
 40
1
 10
52.525803
 20
2.923396
 30
0.0
 10
52.519803
 20
2.889976
 30
0.0
 10
52.512173
 20
2.856906
 30
0.0
 10
52.502973
 20
2.824236
 30
0.0
  0
SPLINE
  5
13b
100
AcDbEntity
  8
Layer_1
 62
1
100
AcDbSpline
 70
8
 71
3
 72
8
 73
4
 74
0
 40
0
 40
0
 40
0
 40
0
 40
1
 40
1
 40
1
 40
1
 10
52.502973
 20
2.824236
 30
0.0
 10
52.493973
 20
2.792086
 30
0.0
 10
52.483393
 20
2.760336
 30
0.0
 10
52.471123
 20
2.729276
 30
0.0
  0
SPLINE
  5
13c
100
AcDbEntity
  8
Layer_1
 62
1
100
AcDbSpline
 70
8
 71
3
 72
8
 73
4
 74
0
 40
0
 40
0
 40
0
 40
0
 40
1
 40
1
 40
1
 40
1
 10
52.471123
 20
2.729276
 30
0.0
 10
52.458903
 20
2.698346
 30
0.0
 10
52.444983
 20
2.668076
 30
0.0
 10
52.429653
 20
2.638526
 30
0.0
  0
SPLINE
  5
13d
100
AcDbEntity
  8
Layer_1
 62
1
100
AcDbSpline
 70
8
 71
3
 72
8
 73
4
 74
0
 40
0
 40
0
 40
0
 40
0
 40
1
 40
1
 40
1
 40
1
 10
52.429653
 20
2.638526
 30
0.0
 10
52.414413
 20
2.609106
 30
0.0
 10
52.397793
 20
2.580396
 30
0.0
 10
52.379773
 20
2.552586
 30
0.0
  0
SPLINE
  5
13e
100
AcDbEntity
  8
Layer_1
 62
1
100
AcDbSpline
 70
8
 71
3
 72
8
 73
4
 74
0
 40
0
 40
0
 40
0
 40
0
 40
1
 40
1
 40
1
 40
1
 10
52.379773
 20
2.552586
 30
0.0
 10
52.361353
 20
2.524166
 30
0.0
 10
52.341463
 20
2.496676
 30
0.0
 10
52.320283
 20
2.470276
 30
0.0
  0
SPLINE
  5
13f
100
AcDbEntity
  8
Layer_1
 62
1
100
AcDbSpline
 70
8
 71
3
 72
8
 73
4
 74
0
 40
0
 40
0
 40
0
 40
0
 40
1
 40
1
 40
1
 40
1
 10
52.320283
 20
2.470276
 30
0.0
 10
52.298693
 20
2.443346
 30
0.0
 10
52.275773
 20
2.417516
 30
0.0
 10
52.251773
 20
2.392756
 30
0.0
  0
SPLINE
  5
140
100
AcDbEntity
  8
Layer_1
 62
1
100
AcDbSpline
 70
8
 71
3
 72
8
 73
4
 74
0
 40
0
 40
0
 40
0
 40
0
 40
1
 40
1
 40
1
 40
1
 10
52.251773
 20
2.392756
 30
0.0
 10
52.227803
 20
2.367886
 30
0.0
 10
52.202773
 20
2.344286
 30
0.0
 10
52.176653
 20
2.321816
 30
0.0
  0
SPLINE
  5
141
100
AcDbEntity
  8
Layer_1
 62
1
100
AcDbSpline
 70
8
 71
3
 72
8
 73
4
 74
0
 40
0
 40
0
 40
0
 40
0
 40
1
 40
1
 40
1
 40
1
 10
52.176653
 20
2.321816
 30
0.0
 10
52.151433
 20
2.300126
 30
0.0
 10
52.125193
 20
2.279616
 30
0.0
 10
52.097923
 20
2.260536
 30
0.0
  0
SPLINE
  5
142
100
AcDbEntity
  8
Layer_1
 62
1
100
AcDbSpline
 70
8
 71
3
 72
8
 73
4
 74
0
 40
0
 40
0
 40
0
 40
0
 40
1
 40
1
 40
1
 40
1
 10
52.097923
 20
2.260536
 30
0.0
 10
52.071223
 20
2.241746
 30
0.0
 10
52.043543
 20
2.224556
 30
0.0
 10
52.014993
 20
2.208836
 30
0.0
  0
SPLINE
  5
143
100
AcDbEntity
  8
Layer_1
 62
1
100
AcDbSpline
 70
8
 71
3
 72
8
 73
4
 74
0
 40
0
 40
0
 40
0
 40
0
 40
1
 40
1
 40
1
 40
1
 10
52.014993
 20
2.208836
 30
0.0
 10
51.986723
 20
2.193226
 30
0.0
 10
51.957593
 20
2.179306
 30
0.0
 10
51.927853
 20
2.166766
 30
0.0
  0
SPLINE
  5
144
100
AcDbEntity
  8
Layer_1
 62
1
100
AcDbSpline
 70
8
 71
3
 72
8
 73
4
 74
0
 40
0
 40
0
 40
0
 40
0
 40
1
 40
1
 40
1
 40
1
 10
51.927853
 20
2.166766
 30
0.0
 10
51.898173
 20
2.154326
 30
0.0
 10
51.867873
 20
2.143216
 30
0.0
 10
51.837113
 20
2.133716
 30
0.0
  0
SPLINE
  5
145
100
AcDbEntity
  8
Layer_1
 62
1
100
AcDbSpline
 70
8
 71
3
 72
8
 73
4
 74
0
 40
0
 40
0
 40
0
 40
0
 40
1
 40
1
 40
1
 40
1
 10
51.837113
 20
2.133716
 30
0.0
 10
51.805903
 20
2.123916
 30
0.0
 10
51.774213
 20
2.115986
 30
0.0
 10
51.742163
 20
2.109636
 30
0.0
  0
SPLINE
  5
146
100
AcDbEntity
  8
Layer_1
 62
1
100
AcDbSpline
 70
8
 71
3
 72
8
 73
4
 74
0
 40
0
 40
0
 40
0
 40
0
 40
1
 40
1
 40
1
 40
1
 10
51.742163
 20
2.109636
 30
0.0
 10
51.709593
 20
2.103336
 30
0.0
 10
51.676663
 20
2.098526
 30
0.0
 10
51.643603
 20
2.095876
 30
0.0
  0
SPLINE
  5
147
100
AcDbEntity
  8
Layer_1
 62
1
100
AcDbSpline
 70
8
 71
3
 72
8
 73
4
 74
0
 40
0
 40
0
 40
0
 40
0
 40
1
 40
1
 40
1
 40
1
 10
51.643603
 20
2.095876
 30
0.0
 10
51.609433
 20
2.092976
 30
0.0
 10
51.575133
 20
2.092176
 30
0.0
 10
51.540839
 20
2.091076
 30
0.0
  0
SPLINE
  5
148
100
AcDbEntity
  8
Layer_1
 62
1
100
AcDbSpline
 70
8
 71
3
 72
8
 73
4
 74
0
 40
0
 40
0
 40
0
 40
0
 40
1
 40
1
 40
1
 40
1
 10
51.448882
 20
4.100660
 30
0.0
 10
51.464862
 20
4.105160
 30
0.0
 10
51.480822
 20
4.109660
 30
0.0
 10
51.496962
 20
4.113360
 30
0.0
  0
SPLINE
  5
149
100
AcDbEntity
  8
Layer_1
 62
1
100
AcDbSpline
 70
8
 71
3
 72
8
 73
4
 74
0
 40
0
 40
0
 40
0
 40
0
 40
1
 40
1
 40
1
 40
1
 10
51.496962
 20
4.113360
 30
0.0
 10
51.512652
 20
4.117060
 30
0.0
 10
51.528512
 20
4.119960
 30
0.0
 10
51.544442
 20
4.122360
 30
0.0
  0
SPLINE
  5
14a
100
AcDbEntity
  8
Layer_1
 62
1
100
AcDbSpline
 70
8
 71
3
 72
8
 73
4
 74
0
 40
0
 40
0
 40
0
 40
0
 40
1
 40
1
 40
1
 40
1
 10
51.544442
 20
4.122360
 30
0.0
 10
51.559792
 20
4.124960
 30
0.0
 10
51.575232
 20
4.126560
 30
0.0
 10
51.590712
 20
4.127660
 30
0.0
  0
SPLINE
  5
14b
100
AcDbEntity
  8
Layer_1
 62
1
100
AcDbSpline
 70
8
 71
3
 72
8
 73
4
 74
0
 40
0
 40
0
 40
0
 40
0
 40
1
 40
1
 40
1
 40
1
 10
51.590712
 20
4.127660
 30
0.0
 10
51.605292
 20
4.127660
 30
0.0
 10
51.619942
 20
4.130260
 30
0.0
 10
51.634582
 20
4.130260
 30
0.0
  0
SPLINE
  5
14c
100
AcDbEntity
  8
Layer_1
 62
1
100
AcDbSpline
 70
8
 71
3
 72
8
 73
4
 74
0
 40
0
 40
0
 40
0
 40
0
 40
1
 40
1
 40
1
 40
1
 10
51.593714
 20
3.591046
 30
0.0
 10
51.578444
 20
3.591046
 30
0.0
 10
51.563174
 20
3.591046
 30
0.0
 10
51.548044
 20
3.588146
 30
0.0
  0
SPLINE
  5
14d
100
AcDbEntity
  8
Layer_1
 62
1
100
AcDbSpline
 70
8
 71
3
 72
8
 73
4
 74
0
 40
0
 40
0
 40
0
 40
0
 40
1
 40
1
 40
1
 40
1
 10
51.548044
 20
3.588146
 30
0.0
 10
51.532834
 20
3.585546
 30
0.0
 10
51.517774
 20
3.583146
 30
0.0
 10
51.502974
 20
3.579146
 30
0.0
  0
SPLINE
  5
14e
100
AcDbEntity
  8
Layer_1
 62
1
100
AcDbSpline
 70
8
 71
3
 72
8
 73
4
 74
0
 40
0
 40
0
 40
0
 40
0
 40
1
 40
1
 40
1
 40
1
 10
51.502974
 20
3.579146
 30
0.0
 10
51.487864
 20
3.574946
 30
0.0
 10
51.473024
 20
3.569846
 30
0.0
 10
51.458504
 20
3.564066
 30
0.0
  0
SPLINE
  5
14f
100
AcDbEntity
  8
Layer_1
 62
1
100
AcDbSpline
 70
8
 71
3
 72
8
 73
4
 74
0
 40
0
 40
0
 40
0
 40
0
 40
1
 40
1
 40
1
 40
1
 10
51.458504
 20
3.564066
 30
0.0
 10
51.443294
 20
3.557966
 30
0.0
 10
51.428424
 20
3.550836
 30
0.0
 10
51.414034
 20
3.542896
 30
0.0
  0
SPLINE
  5
150
100
AcDbEntity
  8
Layer_1
 62
1
100
AcDbSpline
 70
8
 71
3
 72
8
 73
4
 74
0
 40
0
 40
0
 40
0
 40
0
 40
1
 40
1
 40
1
 40
1
 10
51.414034
 20
3.542896
 30
0.0
 10
51.398954
 20
3.534696
 30
0.0
 10
51.384394
 20
3.525436
 30
0.0
 10
51.370164
 20
3.515856
 30
0.0
  0
SPLINE
  5
151
100
AcDbEntity
  8
Layer_1
 62
1
100
AcDbSpline
 70
8
 71
3
 72
8
 73
4
 74
0
 40
0
 40
0
 40
0
 40
0
 40
1
 40
1
 40
1
 40
1
 10
51.370164
 20
3.515856
 30
0.0
 10
51.355084
 20
3.505536
 30
0.0
 10
51.340394
 20
3.494956
 30
0.0
 10
51.326294
 20
3.483416
 30
0.0
  0
SPLINE
  5
152
100
AcDbEntity
  8
Layer_1
 62
1
100
AcDbSpline
 70
8
 71
3
 72
8
 73
4
 74
0
 40
0
 40
0
 40
0
 40
0
 40
1
 40
1
 40
1
 40
1
 10
51.326294
 20
3.483416
 30
0.0
 10
51.311234
 20
3.470976
 30
0.0
 10
51.296864
 20
3.458016
 30
0.0
 10
51.283024
 20
3.444336
 30
0.0
  0
SPLINE
  5
153
100
AcDbEntity
  8
Layer_1
 62
1
100
AcDbSpline
 70
8
 71
3
 72
8
 73
4
 74
0
 40
0
 40
0
 40
0
 40
0
 40
1
 40
1
 40
1
 40
1
 10
51.283024
 20
3.444336
 30
0.0
 10
51.268184
 20
3.429786
 30
0.0
 10
51.253974
 20
3.414486
 30
0.0
 10
51.239754
 20
3.399276
 30
0.0
  0
SPLINE
  5
154
100
AcDbEntity
  8
Layer_1
 62
1
100
AcDbSpline
 70
8
 71
3
 72
8
 73
4
 74
0
 40
0
 40
0
 40
0
 40
0
 40
1
 40
1
 40
1
 40
1
 10
51.540830
 20
2.091044
 30
0.0
 10
51.510160
 20
2.091044
 30
0.0
 10
51.479490
 20
2.093644
 30
0.0
 10
51.448880
 20
2.094744
 30
0.0
  0
SPLINE
  5
155
100
AcDbEntity
  8
Layer_1
 62
1
100
AcDbSpline
 70
8
 71
3
 72
8
 73
4
 74
0
 40
0
 40
0
 40
0
 40
0
 40
1
 40
1
 40
1
 40
1
 10
51.448880
 20
2.094744
 30
0.0
 10
51.419130
 20
2.097344
 30
0.0
 10
51.389440
 20
2.099744
 30
0.0
 10
51.359940
 20
2.104244
 30
0.0
  0
SPLINE
  5
156
100
AcDbEntity
  8
Layer_1
 62
1
100
AcDbSpline
 70
8
 71
3
 72
8
 73
4
 74
0
 40
0
 40
0
 40
0
 40
0
 40
1
 40
1
 40
1
 40
1
 10
51.359940
 20
2.104244
 30
0.0
 10
51.331260
 20
2.108444
 30
0.0
 10
51.302770
 20
2.114044
 30
0.0
 10
51.274600
 20
2.121174
 30
0.0
  0
SPLINE
  5
157
100
AcDbEntity
  8
Layer_1
 62
1
100
AcDbSpline
 70
8
 71
3
 72
8
 73
4
 74
0
 40
0
 40
0
 40
0
 40
0
 40
1
 40
1
 40
1
 40
1
 10
51.274600
 20
2.121174
 30
0.0
 10
51.246830
 20
2.128074
 30
0.0
 10
51.219380
 20
2.135994
 30
0.0
 10
51.192270
 20
2.145254
 30
0.0
  0
SPLINE
  5
158
100
AcDbEntity
  8
Layer_1
 62
1
100
AcDbSpline
 70
8
 71
3
 72
8
 73
4
 74
0
 40
0
 40
0
 40
0
 40
0
 40
1
 40
1
 40
1
 40
1
 10
51.192270
 20
2.145254
 30
0.0
 10
51.165630
 20
2.154254
 30
0.0
 10
51.139310
 20
2.164044
 30
0.0
 10
51.113540
 20
2.175284
 30
0.0
  0
SPLINE
  5
159
100
AcDbEntity
  8
Layer_1
 62
1
100
AcDbSpline
 70
8
 71
3
 72
8
 73
4
 74
0
 40
0
 40
0
 40
0
 40
0
 40
1
 40
1
 40
1
 40
1
 10
51.113540
 20
2.175284
 30
0.0
 10
51.087740
 20
2.186394
 30
0.0
 10
51.062470
 20
2.198834
 30
0.0
 10
51.037820
 20
2.212564
 30
0.0
  0
SPLINE
  5
15a
100
AcDbEntity
  8
Layer_1
 62
1
100
AcDbSpline
 70
8
 71
3
 72
8
 73
4
 74
0
 40
0
 40
0
 40
0
 40
0
 40
1
 40
1
 40
1
 40
1
 10
51.037820
 20
2.212564
 30
0.0
 10
51.013160
 20
2.226054
 30
0.0
 10
50.989120
 20
2.240794
 30
0.0
 10
50.965700
 20
2.256434
 30
0.0
  0
SPLINE
  5
15b
100
AcDbEntity
  8
Layer_1
 62
1
100
AcDbSpline
 70
8
 71
3
 72
8
 73
4
 74
0
 40
0
 40
0
 40
0
 40
0
 40
1
 40
1
 40
1
 40
1
 10
50.965700
 20
2.256434
 30
0.0
 10
50.941970
 20
2.272314
 30
0.0
 10
50.918870
 20
2.289054
 30
0.0
 10
50.896590
 20
2.306914
 30
0.0
  0
SPLINE
  5
15c
100
AcDbEntity
  8
Layer_1
 62
1
100
AcDbSpline
 70
8
 71
3
 72
8
 73
4
 74
0
 40
0
 40
0
 40
0
 40
0
 40
1
 40
1
 40
1
 40
1
 10
50.896590
 20
2.306914
 30
0.0
 10
50.874310
 20
2.324644
 30
0.0
 10
50.852850
 20
2.343614
 30
0.0
 10
50.832290
 20
2.363404
 30
0.0
  0
SPLINE
  5
15d
100
AcDbEntity
  8
Layer_1
 62
1
100
AcDbSpline
 70
8
 71
3
 72
8
 73
4
 74
0
 40
0
 40
0
 40
0
 40
0
 40
1
 40
1
 40
1
 40
1
 10
50.832290
 20
2.363404
 30
0.0
 10
50.811760
 20
2.383244
 30
0.0
 10
50.792140
 20
2.403834
 30
0.0
 10
50.773390
 20
2.425294
 30
0.0
  0
SPLINE
  5
15e
100
AcDbEntity
  8
Layer_1
 62
1
100
AcDbSpline
 70
8
 71
3
 72
8
 73
4
 74
0
 40
0
 40
0
 40
0
 40
0
 40
1
 40
1
 40
1
 40
1
 10
50.773390
 20
2.425294
 30
0.0
 10
50.754820
 20
2.446464
 30
0.0
 10
50.737110
 20
2.468584
 30
0.0
 10
50.720510
 20
2.491414
 30
0.0
  0
SPLINE
  5
15f
100
AcDbEntity
  8
Layer_1
 62
1
100
AcDbSpline
 70
8
 71
3
 72
8
 73
4
 74
0
 40
0
 40
0
 40
0
 40
0
 40
1
 40
1
 40
1
 40
1
 10
50.720510
 20
2.491414
 30
0.0
 10
50.703740
 20
2.514434
 30
0.0
 10
50.688100
 20
2.538354
 30
0.0
 10
50.673630
 20
2.562904
 30
0.0
  0
SPLINE
  5
160
100
AcDbEntity
  8
Layer_1
 62
1
100
AcDbSpline
 70
8
 71
3
 72
8
 73
4
 74
0
 40
0
 40
0
 40
0
 40
0
 40
1
 40
1
 40
1
 40
1
 10
50.673630
 20
2.562904
 30
0.0
 10
50.658890
 20
2.588044
 30
0.0
 10
50.645390
 20
2.613674
 30
0.0
 10
50.632770
 20
2.639844
 30
0.0
  0
SPLINE
  5
161
100
AcDbEntity
  8
Layer_1
 62
1
100
AcDbSpline
 70
8
 71
3
 72
8
 73
4
 74
0
 40
0
 40
0
 40
0
 40
0
 40
1
 40
1
 40
1
 40
1
 10
50.632770
 20
2.639844
 30
0.0
 10
50.619940
 20
2.666434
 30
0.0
 10
50.608030
 20
2.693474
 30
0.0
 10
50.597310
 20
2.720964
 30
0.0
  0
SPLINE
  5
162
100
AcDbEntity
  8
Layer_1
 62
1
100
AcDbSpline
 70
8
 71
3
 72
8
 73
4
 74
0
 40
0
 40
0
 40
0
 40
0
 40
1
 40
1
 40
1
 40
1
 10
50.597310
 20
2.720964
 30
0.0
 10
50.586250
 20
2.749354
 30
0.0
 10
50.576460
 20
2.778274
 30
0.0
 10
50.567860
 20
2.807514
 30
0.0
  0
SPLINE
  5
163
100
AcDbEntity
  8
Layer_1
 62
1
100
AcDbSpline
 70
8
 71
3
 72
8
 73
4
 74
0
 40
0
 40
0
 40
0
 40
0
 40
1
 40
1
 40
1
 40
1
 10
50.567860
 20
2.807514
 30
0.0
 10
50.558960
 20
2.837734
 30
0.0
 10
50.551400
 20
2.868294
 30
0.0
 10
50.543840
 20
2.898854
 30
0.0
  0
LWPOLYLINE
  5
164
100
AcDbEntity
  8
Layer_1
 62
1
100
AcDbPolyline
 90
2
 70
0
 10
50.543835
 20
2.898737
 30
0.0
 10
51.159218
 20
2.898737
 30
0.0
  0
LWPOLYLINE
  5
165
100
AcDbEntity
  8
Layer_1
 62
1
100
AcDbPolyline
 90
2
 70
0
 10
51.566071
 20
4.667980
 30
0.0
 10
51.448882
 20
4.100660
 30
0.0
  0
LWPOLYLINE
  5
166
100
AcDbEntity
  8
Layer_1
 62
1
100
AcDbPolyline
 90
2
 70
0
 10
52.505373
 20
4.667980
 30
0.0
 10
51.566071
 20
4.667980
 30
0.0
  0
LWPOLYLINE
  5
167
100
AcDbEntity
  8
Layer_1
 62
1
100
AcDbPolyline
 90
2
 70
0
 10
52.505373
 20
5.167989
 30
0.0
 10
52.505373
 20
4.667980
 30
0.0
  0
LWPOLYLINE
  5
168
100
AcDbEntity
  8
Layer_1
 62
1
100
AcDbPolyline
 90
2
 70
0
 10
51.139388
 20
5.167989
 30
0.0
 10
52.505373
 20
5.167989
 30
0.0
  0
LWPOLYLINE
  5
169
100
AcDbEntity
  8
Layer_1
 62
1
100
AcDbPolyline
 90
2
 70
0
 10
50.786622
 20
3.503310
 30
0.0
 10
51.139388
 20
5.167989
 30
0.0
  0
SPLINE
  5
16a
100
AcDbEntity
  8
Layer_1
 62
7
100
AcDbSpline
 70
8
 71
3
 72
8
 73
4
 74
0
 40
0
 40
0
 40
0
 40
0
 40
1
 40
1
 40
1
 40
1
 10
30.520758
 20
42.167976
 30
0.0
 10
30.521143
 20
43.204303
 30
0.0
 10
29.968490
 20
44.162073
 30
0.0
 10
29.071069
 20
44.680347
 30
0.0
  0
SPLINE
  5
16b
100
AcDbEntity
  8
Layer_1
 62
7
100
AcDbSpline
 70
8
 71
3
 72
8
 73
4
 74
0
 40
0
 40
0
 40
0
 40
0
 40
1
 40
1
 40
1
 40
1
 10
29.071069
 20
44.680347
 30
0.0
 10
28.173648
 20
45.198622
 30
0.0
 10
27.067868
 20
45.198622
 30
0.0
 10
26.170447
 20
44.680347
 30
0.0
  0
SPLINE
  5
16c
100
AcDbEntity
  8
Layer_1
 62
7
100
AcDbSpline
 70
8
 71
3
 72
8
 73
4
 74
0
 40
0
 40
0
 40
0
 40
0
 40
1
 40
1
 40
1
 40
1
 10
26.170447
 20
44.680347
 30
0.0
 10
25.273026
 20
44.162073
 30
0.0
 10
24.720373
 20
43.204303
 30
0.0
 10
24.720758
 20
42.167976
 30
0.0
  0
SPLINE
  5
16d
100
AcDbEntity
  8
Layer_1
 62
7
100
AcDbSpline
 70
8
 71
3
 72
8
 73
4
 74
0
 40
0
 40
0
 40
0
 40
0
 40
1
 40
1
 40
1
 40
1
 10
24.720758
 20
42.167976
 30
0.0
 10
24.720373
 20
41.131649
 30
0.0
 10
25.273026
 20
40.173879
 30
0.0
 10
26.170447
 20
39.655605
 30
0.0
  0
SPLINE
  5
16e
100
AcDbEntity
  8
Layer_1
 62
7
100
AcDbSpline
 70
8
 71
3
 72
8
 73
4
 74
0
 40
0
 40
0
 40
0
 40
0
 40
1
 40
1
 40
1
 40
1
 10
26.170447
 20
39.655605
 30
0.0
 10
27.067868
 20
39.137330
 30
0.0
 10
28.173648
 20
39.137330
 30
0.0
 10
29.071069
 20
39.655605
 30
0.0
  0
SPLINE
  5
16f
100
AcDbEntity
  8
Layer_1
 62
7
100
AcDbSpline
 70
8
 71
3
 72
8
 73
4
 74
0
 40
0
 40
0
 40
0
 40
0
 40
1
 40
1
 40
1
 40
1
 10
29.071069
 20
39.655605
 30
0.0
 10
29.968490
 20
40.173879
 30
0.0
 10
30.521143
 20
41.131649
 30
0.0
 10
30.520758
 20
42.167976
 30
0.0
  0
LWPOLYLINE
  5
170
100
AcDbEntity
  8
Layer_1
 62
1
100
AcDbPolyline
 90
2
 70
0
 10
51.239747
 20
3.399355
 30
0.0
 10
50.786622
 20
3.503310
 30
0.0
  0
SPLINE
  5
171
100
AcDbEntity
  8
Layer_1
 62
7
100
AcDbSpline
 70
8
 71
3
 72
8
 73
4
 74
0
 40
0
 40
0
 40
0
 40
0
 40
1
 40
1
 40
1
 40
1
 10
44.270757
 20
13.167984
 30
0.0
 10
44.270757
 20
14.204054
 30
0.0
 10
43.718020
 20
15.161423
 30
0.0
 10
42.820757
 20
15.679458
 30
0.0
  0
SPLINE
  5
172
100
AcDbEntity
  8
Layer_1
 62
7
100
AcDbSpline
 70
8
 71
3
 72
8
 73
4
 74
0
 40
0
 40
0
 40
0
 40
0
 40
1
 40
1
 40
1
 40
1
 10
42.820757
 20
15.679458
 30
0.0
 10
41.923494
 20
16.197493
 30
0.0
 10
40.818020
 20
16.197493
 30
0.0
 10
39.920757
 20
15.679458
 30
0.0
  0
SPLINE
  5
173
100
AcDbEntity
  8
Layer_1
 62
7
100
AcDbSpline
 70
8
 71
3
 72
8
 73
4
 74
0
 40
0
 40
0
 40
0
 40
0
 40
1
 40
1
 40
1
 40
1
 10
39.920757
 20
15.679458
 30
0.0
 10
39.023494
 20
15.161423
 30
0.0
 10
38.470757
 20
14.204054
 30
0.0
 10
38.470757
 20
13.167984
 30
0.0
  0
SPLINE
  5
174
100
AcDbEntity
  8
Layer_1
 62
7
100
AcDbSpline
 70
8
 71
3
 72
8
 73
4
 74
0
 40
0
 40
0
 40
0
 40
0
 40
1
 40
1
 40
1
 40
1
 10
38.470757
 20
13.167984
 30
0.0
 10
38.470757
 20
12.131914
 30
0.0
 10
39.023494
 20
11.174545
 30
0.0
 10
39.920757
 20
10.656510
 30
0.0
  0
SPLINE
  5
175
100
AcDbEntity
  8
Layer_1
 62
7
100
AcDbSpline
 70
8
 71
3
 72
8
 73
4
 74
0
 40
0
 40
0
 40
0
 40
0
 40
1
 40
1
 40
1
 40
1
 10
39.920757
 20
10.656510
 30
0.0
 10
40.818020
 20
10.138475
 30
0.0
 10
41.923494
 20
10.138475
 30
0.0
 10
42.820757
 20
10.656510
 30
0.0
  0
SPLINE
  5
176
100
AcDbEntity
  8
Layer_1
 62
7
100
AcDbSpline
 70
8
 71
3
 72
8
 73
4
 74
0
 40
0
 40
0
 40
0
 40
0
 40
1
 40
1
 40
1
 40
1
 10
42.820757
 20
10.656510
 30
0.0
 10
43.718020
 20
11.174545
 30
0.0
 10
44.270757
 20
12.131914
 30
0.0
 10
44.270757
 20
13.167984
 30
0.0
  0
LWPOLYLINE
  5
177
100
AcDbEntity
  8
Layer_1
 62
7
100
AcDbPolyline
 90
1
 70
1
 10
30.520758
 20
42.167976
 30
0.0
  0
SPLINE
  5
178
100
AcDbEntity
  8
Layer_1
 62
7
100
AcDbSpline
 70
8
 71
3
 72
8
 73
4
 74
0
 40
0
 40
0
 40
0
 40
0
 40
1
 40
1
 40
1
 40
1
 10
16.770758
 20
13.167984
 30
0.0
 10
16.770758
 20
14.204054
 30
0.0
 10
16.218021
 20
15.161423
 30
0.0
 10
15.320758
 20
15.679458
 30
0.0
  0
SPLINE
  5
179
100
AcDbEntity
  8
Layer_1
 62
7
100
AcDbSpline
 70
8
 71
3
 72
8
 73
4
 74
0
 40
0
 40
0
 40
0
 40
0
 40
1
 40
1
 40
1
 40
1
 10
15.320758
 20
15.679458
 30
0.0
 10
14.423495
 20
16.197493
 30
0.0
 10
13.318021
 20
16.197493
 30
0.0
 10
12.420758
 20
15.679458
 30
0.0
  0
SPLINE
  5
17a
100
AcDbEntity
  8
Layer_1
 62
7
100
AcDbSpline
 70
8
 71
3
 72
8
 73
4
 74
0
 40
0
 40
0
 40
0
 40
0
 40
1
 40
1
 40
1
 40
1
 10
12.420758
 20
15.679458
 30
0.0
 10
11.523495
 20
15.161423
 30
0.0
 10
10.970758
 20
14.204054
 30
0.0
 10
10.970758
 20
13.167984
 30
0.0
  0
SPLINE
  5
17b
100
AcDbEntity
  8
Layer_1
 62
7
100
AcDbSpline
 70
8
 71
3
 72
8
 73
4
 74
0
 40
0
 40
0
 40
0
 40
0
 40
1
 40
1
 40
1
 40
1
 10
10.970758
 20
13.167984
 30
0.0
 10
10.970758
 20
12.131914
 30
0.0
 10
11.523495
 20
11.174545
 30
0.0
 10
12.420758
 20
10.656510
 30
0.0
  0
SPLINE
  5
17c
100
AcDbEntity
  8
Layer_1
 62
7
100
AcDbSpline
 70
8
 71
3
 72
8
 73
4
 74
0
 40
0
 40
0
 40
0
 40
0
 40
1
 40
1
 40
1
 40
1
 10
12.420758
 20
10.656510
 30
0.0
 10
13.318021
 20
10.138475
 30
0.0
 10
14.423495
 20
10.138475
 30
0.0
 10
15.320758
 20
10.656510
 30
0.0
  0
SPLINE
  5
17d
100
AcDbEntity
  8
Layer_1
 62
7
100
AcDbSpline
 70
8
 71
3
 72
8
 73
4
 74
0
 40
0
 40
0
 40
0
 40
0
 40
1
 40
1
 40
1
 40
1
 10
15.320758
 20
10.656510
 30
0.0
 10
16.218021
 20
11.174545
 30
0.0
 10
16.770758
 20
12.131914
 30
0.0
 10
16.770758
 20
13.167984
 30
0.0
  0
LWPOLYLINE
  5
17e
100
AcDbEntity
  8
Layer_1
 62
7
100
AcDbPolyline
 90
1
 70
1
 10
44.270757
 20
13.167984
 30
0.0
  0
LWPOLYLINE
  5
17f
100
AcDbEntity
  8
Layer_1
 62
7
100
AcDbPolyline
 90
1
 70
1
 10
16.770758
 20
13.167984
 30
0.0
  0
LWPOLYLINE
  5
180
100
AcDbEntity
  8
Layer_1
 62
7
100
AcDbPolyline
 90
3
 70
0
 10
39.120756
 20
43.667975
 30
0.0
 10
39.120756
 20
33.667977
 30
0.0
 10
42.120758
 20
33.667977
 30
0.0
  0
LWPOLYLINE
  5
181
100
AcDbEntity
  8
Layer_1
 62
7
100
AcDbPolyline
 90
2
 70
0
 10
39.120756
 20
43.667975
 30
0.0
 10
42.120758
 20
43.667975
 30
0.0
  0
LWPOLYLINE
  5
182
100
AcDbEntity
  8
Layer_1
 62
7
100
AcDbPolyline
 90
2
 70
0
 10
20.120758
 20
29.167973
 30
0.0
 10
35.120756
 20
29.167973
 30
0.0
  0
LWPOLYLINE
  5
183
100
AcDbEntity
  8
Layer_1
 62
7
100
AcDbPolyline
 90
2
 70
0
 10
20.120758
 20
26.167968
 30
0.0
 10
20.120758
 20
29.167973
 30
0.0
  0
LWPOLYLINE
  5
184
100
AcDbEntity
  8
Layer_1
 62
7
100
AcDbPolyline
 90
3
 70
0
 10
20.120758
 20
26.167968
 30
0.0
 10
35.120756
 20
26.167968
 30
0.0
 10
35.120756
 20
29.167973
 30
0.0
  0
LWPOLYLINE
  5
185
100
AcDbEntity
  8
Layer_1
 62
7
100
AcDbPolyline
 90
2
 70
0
 10
3.120758
 20
26.167968
 30
0.0
 10
6.120758
 20
26.167968
 30
0.0
  0
LWPOLYLINE
  5
186
100
AcDbEntity
  8
Layer_1
 62
7
100
AcDbPolyline
 90
2
 70
0
 10
3.120758
 20
3.167977
 30
0.0
 10
3.120758
 20
26.167968
 30
0.0
  0
LWPOLYLINE
  5
187
100
AcDbEntity
  8
Layer_1
 62
7
100
AcDbPolyline
 90
3
 70
0
 10
3.120758
 20
3.167977
 30
0.0
 10
6.120758
 20
3.167977
 30
0.0
 10
6.120758
 20
26.167968
 30
0.0
  0
LWPOLYLINE
  5
188
100
AcDbEntity
  8
Layer_1
 62
7
100
AcDbPolyline
 90
2
 70
0
 10
52.120757
 20
49.167975
 30
0.0
 10
39.120756
 20
49.167975
 30
0.0
  0
LWPOLYLINE
  5
189
100
AcDbEntity
  8
Layer_1
 62
7
100
AcDbPolyline
 90
2
 70
0
 10
52.120757
 20
52.167977
 30
0.0
 10
52.120757
 20
49.167975
 30
0.0
  0
LWPOLYLINE
  5
18a
100
AcDbEntity
  8
Layer_1
 62
7
100
AcDbPolyline
 90
3
 70
0
 10
52.120757
 20
52.167977
 30
0.0
 10
39.120756
 20
52.167977
 30
0.0
 10
39.120756
 20
49.167975
 30
0.0
  0
LWPOLYLINE
  5
18b
100
AcDbEntity
  8
Layer_1
 62
7
100
AcDbPolyline
 90
2
 70
0
 10
17.620758
 20
3.167977
 30
0.0
 10
25.985292
 20
3.167977
 30
0.0
  0
LWPOLYLINE
  5
18c
100
AcDbEntity
  8
Layer_1
 62
7
100
AcDbPolyline
 90
2
 70
0
 10
17.620758
 20
0.167973
 30
0.0
 10
17.620758
 20
3.167977
 30
0.0
  0
LWPOLYLINE
  5
18d
100
AcDbEntity
  8
Layer_1
 62
7
100
AcDbPolyline
 90
2
 70
0
 10
0.120758
 20
0.167973
 30
0.0
 10
17.620758
 20
0.167973
 30
0.0
  0
LWPOLYLINE
  5
18e
100
AcDbEntity
  8
Layer_1
 62
7
100
AcDbPolyline
 90
3
 70
0
 10
0.120758
 20
0.167973
 30
0.0
 10
0.120758
 20
55.167976
 30
0.0
 10
55.120758
 20
55.167976
 30
0.0
  0
LWPOLYLINE
  5
18f
100
AcDbEntity
  8
Layer_1
 62
7
100
AcDbPolyline
 90
2
 70
0
 10
55.120758
 20
37.667977
 30
0.0
 10
55.120758
 20
55.167976
 30
0.0
  0
LWPOLYLINE
  5
190
100
AcDbEntity
  8
Layer_1
 62
7
100
AcDbPolyline
 90
3
 70
0
 10
55.120758
 20
37.667977
 30
0.0
 10
52.120757
 20
37.667977
 30
0.0
 10
52.120757
 20
29.167973
 30
0.0
  0
LWPOLYLINE
  5
191
100
AcDbEntity
  8
Layer_1
 62
7
100
AcDbPolyline
 90
2
 70
0
 10
46.820758
 20
29.167973
 30
0.0
 10
52.120757
 20
29.167973
 30
0.0
  0
LWPOLYLINE
  5
192
100
AcDbEntity
  8
Layer_1
 62
7
100
AcDbPolyline
 90
2
 70
0
 10
46.820758
 20
30.417970
 30
0.0
 10
46.820758
 20
29.167973
 30
0.0
  0
LWPOLYLINE
  5
193
100
AcDbEntity
  8
Layer_1
 62
7
100
AcDbPolyline
 90
2
 70
0
 10
44.420757
 20
30.417970
 30
0.0
 10
46.820758
 20
30.417970
 30
0.0
  0
LWPOLYLINE
  5
194
100
AcDbEntity
  8
Layer_1
 62
7
100
AcDbPolyline
 90
10
 70
0
 10
44.420757
 20
30.417970
 30
0.0
 10
44.420757
 20
29.167973
 30
0.0
 10
39.120756
 20
29.167973
 30
0.0
 10
39.120756
 20
26.167968
 30
0.0
 10
44.420757
 20
26.167968
 30
0.0
 10
44.420757
 20
24.917971
 30
0.0
 10
46.820758
 20
24.917971
 30
0.0
 10
46.820758
 20
26.167968
 30
0.0
 10
52.120757
 20
26.167968
 30
0.0
 10
52.120757
 20
17.667964
 30
0.0
  0
LWPOLYLINE
  5
195
100
AcDbEntity
  8
Layer_1
 62
7
100
AcDbPolyline
 90
2
 70
0
 10
55.120758
 20
17.667964
 30
0.0
 10
52.120757
 20
17.667964
 30
0.0
  0
LWPOLYLINE
  5
196
100
AcDbEntity
  8
Layer_1
 62
7
100
AcDbPolyline
 90
2
 70
0
 10
55.120758
 20
0.167973
 30
0.0
 10
55.120758
 20
17.667964
 30
0.0
  0
LWPOLYLINE
  5
197
100
AcDbEntity
  8
Layer_1
 62
7
100
AcDbPolyline
 90
2
 70
0
 10
37.620757
 20
0.167973
 30
0.0
 10
55.120758
 20
0.167973
 30
0.0
  0
LWPOLYLINE
  5
198
100
AcDbEntity
  8
Layer_1
 62
7
100
AcDbPolyline
 90
2
 70
0
 10
37.620757
 20
0.167973
 30
0.0
 10
37.620757
 20
3.167977
 30
0.0
  0
LWPOLYLINE
  5
199
100
AcDbEntity
  8
Layer_1
 62
7
100
AcDbPolyline
 90
2
 70
0
 10
29.256222
 20
3.167977
 30
0.0
 10
37.620757
 20
3.167977
 30
0.0
  0
LWPOLYLINE
  5
19a
100
AcDbEntity
  8
Layer_1
 62
7
100
AcDbPolyline
 90
2
 70
0
 10
29.256222
 20
8.364182
 30
0.0
 10
29.256222
 20
3.167977
 30
0.0
  0
LWPOLYLINE
  5
19b
100
AcDbEntity
  8
Layer_1
 62
7
100
AcDbPolyline
 90
2
 70
0
 10
30.506222
 20
8.364182
 30
0.0
 10
29.256222
 20
8.364182
 30
0.0
  0
LWPOLYLINE
  5
19c
100
AcDbEntity
  8
Layer_1
 62
7
100
AcDbPolyline
 90
2
 70
0
 10
30.506222
 20
10.764191
 30
0.0
 10
30.506222
 20
8.364182
 30
0.0
  0
LWPOLYLINE
  5
19d
100
AcDbEntity
  8
Layer_1
 62
7
100
AcDbPolyline
 90
9
 70
0
 10
30.506222
 20
10.764191
 30
0.0
 10
29.256222
 20
10.764191
 30
0.0
 10
29.256222
 20
16.167988
 30
0.0
 10
26.256223
 20
16.167988
 30
0.0
 10
26.256223
 20
10.764191
 30
0.0
 10
25.006223
 20
10.764191
 30
0.0
 10
25.006223
 20
8.364182
 30
0.0
 10
25.985292
 20
8.364182
 30
0.0
 10
25.985292
 20
3.167977
 30
0.0
  0
SPLINE
  5
19e
100
AcDbEntity
  8
Layer_1
 62
1
100
AcDbSpline
 70
8
 71
3
 72
8
 73
4
 74
0
 40
0
 40
0
 40
0
 40
0
 40
1
 40
1
 40
1
 40
1
 10
112.050734
 20
2.851522
 30
0.0
 10
112.061984
 20
2.830352
 30
0.0
 10
112.073224
 20
2.809162
 30
0.0
 10
112.086194
 20
2.789032
 30
0.0
  0
SPLINE
  5
19f
100
AcDbEntity
  8
Layer_1
 62
1
100
AcDbSpline
 70
8
 71
3
 72
8
 73
4
 74
0
 40
0
 40
0
 40
0
 40
0
 40
1
 40
1
 40
1
 40
1
 10
112.086194
 20
2.789032
 30
0.0
 10
112.098414
 20
2.769982
 30
0.0
 10
112.112174
 20
2.751962
 30
0.0
 10
112.127054
 20
2.734952
 30
0.0
  0
SPLINE
  5
1a0
100
AcDbEntity
  8
Layer_1
 62
1
100
AcDbSpline
 70
8
 71
3
 72
8
 73
4
 74
0
 40
0
 40
0
 40
0
 40
0
 40
1
 40
1
 40
1
 40
1
 10
112.127054
 20
2.734952
 30
0.0
 10
112.141424
 20
2.718552
 30
0.0
 10
112.156884
 20
2.703042
 30
0.0
 10
112.173334
 20
2.688672
 30
0.0
  0
SPLINE
  5
1a1
100
AcDbEntity
  8
Layer_1
 62
1
100
AcDbSpline
 70
8
 71
3
 72
8
 73
4
 74
0
 40
0
 40
0
 40
0
 40
0
 40
1
 40
1
 40
1
 40
1
 10
112.173334
 20
2.688672
 30
0.0
 10
112.189394
 20
2.674652
 30
0.0
 10
112.206414
 20
2.661632
 30
0.0
 10
112.224414
 20
2.650202
 30
0.0
  0
SPLINE
  5
1a2
100
AcDbEntity
  8
Layer_1
 62
1
100
AcDbSpline
 70
8
 71
3
 72
8
 73
4
 74
0
 40
0
 40
0
 40
0
 40
0
 40
1
 40
1
 40
1
 40
1
 10
112.224414
 20
2.650202
 30
0.0
 10
112.242034
 20
2.639092
 30
0.0
 10
112.260624
 20
2.629302
 30
0.0
 10
112.279704
 20
2.620752
 30
0.0
  0
SPLINE
  5
1a3
100
AcDbEntity
  8
Layer_1
 62
1
100
AcDbSpline
 70
8
 71
3
 72
8
 73
4
 74
0
 40
0
 40
0
 40
0
 40
0
 40
1
 40
1
 40
1
 40
1
 10
112.279704
 20
2.620752
 30
0.0
 10
112.298644
 20
2.612252
 30
0.0
 10
112.318074
 20
2.604882
 30
0.0
 10
112.337994
 20
2.599052
 30
0.0
  0
SPLINE
  5
1a4
100
AcDbEntity
  8
Layer_1
 62
1
100
AcDbSpline
 70
8
 71
3
 72
8
 73
4
 74
0
 40
0
 40
0
 40
0
 40
0
 40
1
 40
1
 40
1
 40
1
 10
112.337994
 20
2.599052
 30
0.0
 10
112.358054
 20
2.593252
 30
0.0
 10
112.378584
 20
2.589002
 30
0.0
 10
112.399294
 20
2.586352
 30
0.0
  0
SPLINE
  5
1a5
100
AcDbEntity
  8
Layer_1
 62
1
100
AcDbSpline
 70
8
 71
3
 72
8
 73
4
 74
0
 40
0
 40
0
 40
0
 40
0
 40
1
 40
1
 40
1
 40
1
 10
112.399294
 20
2.586352
 30
0.0
 10
112.420404
 20
2.583752
 30
0.0
 10
112.441704
 20
2.582952
 30
0.0
 10
112.462994
 20
2.582152
 30
0.0
  0
SPLINE
  5
1a6
100
AcDbEntity
  8
Layer_1
 62
1
100
AcDbSpline
 70
8
 71
3
 72
8
 73
4
 74
0
 40
0
 40
0
 40
0
 40
0
 40
1
 40
1
 40
1
 40
1
 10
112.896888
 20
3.069089
 30
0.0
 10
112.896623
 20
3.086019
 30
0.0
 10
112.896094
 20
3.103169
 30
0.0
 10
112.894988
 20
3.120159
 30
0.0
  0
SPLINE
  5
1a7
100
AcDbEntity
  8
Layer_1
 62
1
100
AcDbSpline
 70
8
 71
3
 72
8
 73
4
 74
0
 40
0
 40
0
 40
0
 40
0
 40
1
 40
1
 40
1
 40
1
 10
112.894988
 20
3.120159
 30
0.0
 10
112.893888
 20
3.136299
 30
0.0
 10
112.892088
 20
3.152309
 30
0.0
 10
112.889588
 20
3.168229
 30
0.0
  0
SPLINE
  5
1a8
100
AcDbEntity
  8
Layer_1
 62
1
100
AcDbSpline
 70
8
 71
3
 72
8
 73
4
 74
0
 40
0
 40
0
 40
0
 40
0
 40
1
 40
1
 40
1
 40
1
 10
112.889588
 20
3.168229
 30
0.0
 10
112.887188
 20
3.183839
 30
0.0
 10
112.883888
 20
3.199239
 30
0.0
 10
112.879988
 20
3.214499
 30
0.0
  0
SPLINE
  5
1a9
100
AcDbEntity
  8
Layer_1
 62
1
100
AcDbSpline
 70
8
 71
3
 72
8
 73
4
 74
0
 40
0
 40
0
 40
0
 40
0
 40
1
 40
1
 40
1
 40
1
 10
112.879988
 20
3.214499
 30
0.0
 10
112.876188
 20
3.229319
 30
0.0
 10
112.871888
 20
3.243979
 30
0.0
 10
112.866758
 20
3.258369
 30
0.0
  0
SPLINE
  5
1aa
100
AcDbEntity
  8
Layer_1
 62
1
100
AcDbSpline
 70
8
 71
3
 72
8
 73
4
 74
0
 40
0
 40
0
 40
0
 40
0
 40
1
 40
1
 40
1
 40
1
 10
112.866758
 20
3.258369
 30
0.0
 10
112.861858
 20
3.272389
 30
0.0
 10
112.856198
 20
3.286309
 30
0.0
 10
112.849928
 20
3.299859
 30
0.0
  0
SPLINE
  5
1ab
100
AcDbEntity
  8
Layer_1
 62
1
100
AcDbSpline
 70
8
 71
3
 72
8
 73
4
 74
0
 40
0
 40
0
 40
0
 40
0
 40
1
 40
1
 40
1
 40
1
 10
112.849928
 20
3.299859
 30
0.0
 10
112.843728
 20
3.313089
 30
0.0
 10
112.836938
 20
3.326319
 30
0.0
 10
112.829498
 20
3.338909
 30
0.0
  0
SPLINE
  5
1ac
100
AcDbEntity
  8
Layer_1
 62
1
100
AcDbSpline
 70
8
 71
3
 72
8
 73
4
 74
0
 40
0
 40
0
 40
0
 40
0
 40
1
 40
1
 40
1
 40
1
 10
112.829498
 20
3.338909
 30
0.0
 10
112.821998
 20
3.351879
 30
0.0
 10
112.813758
 20
3.364309
 30
0.0
 10
112.804868
 20
3.376159
 30
0.0
  0
SPLINE
  5
1ad
100
AcDbEntity
  8
Layer_1
 62
1
100
AcDbSpline
 70
8
 71
3
 72
8
 73
4
 74
0
 40
0
 40
0
 40
0
 40
0
 40
1
 40
1
 40
1
 40
1
 10
112.804868
 20
3.376159
 30
0.0
 10
112.796068
 20
3.388069
 30
0.0
 10
112.786528
 20
3.399439
 30
0.0
 10
112.776618
 20
3.410419
 30
0.0
  0
SPLINE
  5
1ae
100
AcDbEntity
  8
Layer_1
 62
1
100
AcDbSpline
 70
8
 71
3
 72
8
 73
4
 74
0
 40
0
 40
0
 40
0
 40
0
 40
1
 40
1
 40
1
 40
1
 10
112.776618
 20
3.410419
 30
0.0
 10
112.766818
 20
3.421269
 30
0.0
 10
112.756668
 20
3.431849
 30
0.0
 10
112.745968
 20
3.441669
 30
0.0
  0
SPLINE
  5
1af
100
AcDbEntity
  8
Layer_1
 62
1
100
AcDbSpline
 70
8
 71
3
 72
8
 73
4
 74
0
 40
0
 40
0
 40
0
 40
0
 40
1
 40
1
 40
1
 40
1
 10
112.745968
 20
3.441669
 30
0.0
 10
112.735648
 20
3.451169
 30
0.0
 10
112.724828
 20
3.460459
 30
0.0
 10
112.713518
 20
3.468709
 30
0.0
  0
SPLINE
  5
1b0
100
AcDbEntity
  8
Layer_1
 62
1
100
AcDbSpline
 70
8
 71
3
 72
8
 73
4
 74
0
 40
0
 40
0
 40
0
 40
0
 40
1
 40
1
 40
1
 40
1
 10
112.713518
 20
3.468709
 30
0.0
 10
112.702508
 20
3.476909
 30
0.0
 10
112.690998
 20
3.484319
 30
0.0
 10
112.679258
 20
3.491459
 30
0.0
  0
SPLINE
  5
1b1
100
AcDbEntity
  8
Layer_1
 62
1
100
AcDbSpline
 70
8
 71
3
 72
8
 73
4
 74
0
 40
0
 40
0
 40
0
 40
0
 40
1
 40
1
 40
1
 40
1
 10
112.679258
 20
3.491459
 30
0.0
 10
112.667748
 20
3.498359
 30
0.0
 10
112.655998
 20
3.504949
 30
0.0
 10
112.643798
 20
3.510779
 30
0.0
  0
SPLINE
  5
1b2
100
AcDbEntity
  8
Layer_1
 62
1
100
AcDbSpline
 70
8
 71
3
 72
8
 73
4
 74
0
 40
0
 40
0
 40
0
 40
0
 40
1
 40
1
 40
1
 40
1
 10
112.643798
 20
3.510779
 30
0.0
 10
112.631728
 20
3.516379
 30
0.0
 10
112.619248
 20
3.521099
 30
0.0
 10
112.606538
 20
3.525329
 30
0.0
  0
SPLINE
  5
1b3
100
AcDbEntity
  8
Layer_1
 62
1
100
AcDbSpline
 70
8
 71
3
 72
8
 73
4
 74
0
 40
0
 40
0
 40
0
 40
0
 40
1
 40
1
 40
1
 40
1
 10
112.606538
 20
3.525329
 30
0.0
 10
112.593708
 20
3.529329
 30
0.0
 10
112.580638
 20
3.532729
 30
0.0
 10
112.567478
 20
3.535649
 30
0.0
  0
SPLINE
  5
1b4
100
AcDbEntity
  8
Layer_1
 62
1
100
AcDbSpline
 70
8
 71
3
 72
8
 73
4
 74
0
 40
0
 40
0
 40
0
 40
0
 40
1
 40
1
 40
1
 40
1
 10
112.567478
 20
3.535649
 30
0.0
 10
112.554168
 20
3.538549
 30
0.0
 10
112.540738
 20
3.540949
 30
0.0
 10
112.527218
 20
3.542249
 30
0.0
  0
SPLINE
  5
1b5
100
AcDbEntity
  8
Layer_1
 62
1
100
AcDbSpline
 70
8
 71
3
 72
8
 73
4
 74
0
 40
0
 40
0
 40
0
 40
0
 40
1
 40
1
 40
1
 40
1
 10
112.527218
 20
3.542249
 30
0.0
 10
112.513278
 20
3.544849
 30
0.0
 10
112.499208
 20
3.544849
 30
0.0
 10
112.485148
 20
3.544849
 30
0.0
  0
SPLINE
  5
1b6
100
AcDbEntity
  8
Layer_1
 62
1
100
AcDbSpline
 70
8
 71
3
 72
8
 73
4
 74
0
 40
0
 40
0
 40
0
 40
0
 40
1
 40
1
 40
1
 40
1
 10
112.526095
 20
4.082311
 30
0.0
 10
112.557995
 20
4.082311
 30
0.0
 10
112.589895
 20
4.079711
 30
0.0
 10
112.621645
 20
4.078111
 30
0.0
  0
SPLINE
  5
1b7
100
AcDbEntity
  8
Layer_1
 62
1
100
AcDbSpline
 70
8
 71
3
 72
8
 73
4
 74
0
 40
0
 40
0
 40
0
 40
0
 40
1
 40
1
 40
1
 40
1
 10
112.621645
 20
4.078111
 30
0.0
 10
112.652485
 20
4.075511
 30
0.0
 10
112.683185
 20
4.071011
 30
0.0
 10
112.713595
 20
4.064881
 30
0.0
  0
SPLINE
  5
1b8
100
AcDbEntity
  8
Layer_1
 62
1
100
AcDbSpline
 70
8
 71
3
 72
8
 73
4
 74
0
 40
0
 40
0
 40
0
 40
0
 40
1
 40
1
 40
1
 40
1
 10
112.713595
 20
4.064881
 30
0.0
 10
112.742985
 20
4.059081
 30
0.0
 10
112.772095
 20
4.051921
 30
0.0
 10
112.800735
 20
4.043181
 30
0.0
  0
SPLINE
  5
1b9
100
AcDbEntity
  8
Layer_1
 62
1
100
AcDbSpline
 70
8
 71
3
 72
8
 73
4
 74
0
 40
0
 40
0
 40
0
 40
0
 40
1
 40
1
 40
1
 40
1
 10
112.800735
 20
4.043181
 30
0.0
 10
112.829115
 20
4.034481
 30
0.0
 10
112.857035
 20
4.024391
 30
0.0
 10
112.884265
 20
4.012541
 30
0.0
  0
SPLINE
  5
1ba
100
AcDbEntity
  8
Layer_1
 62
1
100
AcDbSpline
 70
8
 71
3
 72
8
 73
4
 74
0
 40
0
 40
0
 40
0
 40
0
 40
1
 40
1
 40
1
 40
1
 10
112.884265
 20
4.012541
 30
0.0
 10
112.911415
 20
4.000901
 30
0.0
 10
112.937885
 20
3.987411
 30
0.0
 10
112.963595
 20
3.972881
 30
0.0
  0
SPLINE
  5
1bb
100
AcDbEntity
  8
Layer_1
 62
1
100
AcDbSpline
 70
8
 71
3
 72
8
 73
4
 74
0
 40
0
 40
0
 40
0
 40
0
 40
1
 40
1
 40
1
 40
1
 10
112.963595
 20
3.972881
 30
0.0
 10
112.989445
 20
3.958061
 30
0.0
 10
113.014525
 20
3.942081
 30
0.0
 10
113.038715
 20
3.924811
 30
0.0
  0
SPLINE
  5
1bc
100
AcDbEntity
  8
Layer_1
 62
1
100
AcDbSpline
 70
8
 71
3
 72
8
 73
4
 74
0
 40
0
 40
0
 40
0
 40
0
 40
1
 40
1
 40
1
 40
1
 10
113.038715
 20
3.924811
 30
0.0
 10
113.063325
 20
3.907351
 30
0.0
 10
113.087005
 20
3.888351
 30
0.0
 10
113.109625
 20
3.868321
 30
0.0
  0
SPLINE
  5
1bd
100
AcDbEntity
  8
Layer_1
 62
1
100
AcDbSpline
 70
8
 71
3
 72
8
 73
4
 74
0
 40
0
 40
0
 40
0
 40
0
 40
1
 40
1
 40
1
 40
1
 10
113.109625
 20
3.868321
 30
0.0
 10
113.132965
 20
3.847681
 30
0.0
 10
113.155145
 20
3.825691
 30
0.0
 10
113.176335
 20
3.802811
 30
0.0
  0
SPLINE
  5
1be
100
AcDbEntity
  8
Layer_1
 62
1
100
AcDbSpline
 70
8
 71
3
 72
8
 73
4
 74
0
 40
0
 40
0
 40
0
 40
0
 40
1
 40
1
 40
1
 40
1
 10
113.176335
 20
3.802811
 30
0.0
 10
113.197685
 20
3.779791
 30
0.0
 10
113.218025
 20
3.755711
 30
0.0
 10
113.237035
 20
3.730681
 30
0.0
  0
SPLINE
  5
1bf
100
AcDbEntity
  8
Layer_1
 62
1
100
AcDbSpline
 70
8
 71
3
 72
8
 73
4
 74
0
 40
0
 40
0
 40
0
 40
0
 40
1
 40
1
 40
1
 40
1
 10
113.237035
 20
3.730681
 30
0.0
 10
113.255955
 20
3.705811
 30
0.0
 10
113.273585
 20
3.679851
 30
0.0
 10
113.289925
 20
3.653161
 30
0.0
  0
SPLINE
  5
1c0
100
AcDbEntity
  8
Layer_1
 62
1
100
AcDbSpline
 70
8
 71
3
 72
8
 73
4
 74
0
 40
0
 40
0
 40
0
 40
0
 40
1
 40
1
 40
1
 40
1
 10
113.289925
 20
3.653161
 30
0.0
 10
113.306115
 20
3.626701
 30
0.0
 10
113.321035
 20
3.599421
 30
0.0
 10
113.334395
 20
3.571431
 30
0.0
  0
SPLINE
  5
1c1
100
AcDbEntity
  8
Layer_1
 62
1
100
AcDbSpline
 70
8
 71
3
 72
8
 73
4
 74
0
 40
0
 40
0
 40
0
 40
0
 40
1
 40
1
 40
1
 40
1
 10
113.334395
 20
3.571431
 30
0.0
 10
113.347945
 20
3.543041
 30
0.0
 10
113.359845
 20
3.513911
 30
0.0
 10
113.370455
 20
3.484301
 30
0.0
  0
SPLINE
  5
1c2
100
AcDbEntity
  8
Layer_1
 62
1
100
AcDbSpline
 70
8
 71
3
 72
8
 73
4
 74
0
 40
0
 40
0
 40
0
 40
0
 40
1
 40
1
 40
1
 40
1
 10
113.370455
 20
3.484301
 30
0.0
 10
113.381255
 20
3.454091
 30
0.0
 10
113.390665
 20
3.423391
 30
0.0
 10
113.398695
 20
3.392331
 30
0.0
  0
SPLINE
  5
1c3
100
AcDbEntity
  8
Layer_1
 62
1
100
AcDbSpline
 70
8
 71
3
 72
8
 73
4
 74
0
 40
0
 40
0
 40
0
 40
0
 40
1
 40
1
 40
1
 40
1
 10
113.398695
 20
3.392331
 30
0.0
 10
113.406995
 20
3.360421
 30
0.0
 10
113.413755
 20
3.328121
 30
0.0
 10
113.419125
 20
3.295601
 30
0.0
  0
SPLINE
  5
1c4
100
AcDbEntity
  8
Layer_1
 62
1
100
AcDbSpline
 70
8
 71
3
 72
8
 73
4
 74
0
 40
0
 40
0
 40
0
 40
0
 40
1
 40
1
 40
1
 40
1
 10
113.419125
 20
3.295601
 30
0.0
 10
113.424725
 20
3.261941
 30
0.0
 10
113.428725
 20
3.228021
 30
0.0
 10
113.431135
 20
3.194027
 30
0.0
  0
SPLINE
  5
1c5
100
AcDbEntity
  8
Layer_1
 62
1
100
AcDbSpline
 70
8
 71
3
 72
8
 73
4
 74
0
 40
0
 40
0
 40
0
 40
0
 40
1
 40
1
 40
1
 40
1
 10
113.431135
 20
3.194027
 30
0.0
 10
113.433735
 20
3.158627
 30
0.0
 10
113.434535
 20
3.123147
 30
0.0
 10
113.435335
 20
3.087664
 30
0.0
  0
SPLINE
  5
1c6
100
AcDbEntity
  8
Layer_1
 62
1
100
AcDbSpline
 70
8
 71
3
 72
8
 73
4
 74
0
 40
0
 40
0
 40
0
 40
0
 40
1
 40
1
 40
1
 40
1
 10
112.462995
 20
2.582309
 30
0.0
 10
112.477835
 20
2.582309
 30
0.0
 10
112.492675
 20
2.582309
 30
0.0
 10
112.507465
 20
2.584909
 30
0.0
  0
SPLINE
  5
1c7
100
AcDbEntity
  8
Layer_1
 62
1
100
AcDbSpline
 70
8
 71
3
 72
8
 73
4
 74
0
 40
0
 40
0
 40
0
 40
0
 40
1
 40
1
 40
1
 40
1
 10
112.507465
 20
2.584909
 30
0.0
 10
112.521775
 20
2.584909
 30
0.0
 10
112.536045
 20
2.588109
 30
0.0
 10
112.550135
 20
2.591009
 30
0.0
  0
SPLINE
  5
1c8
100
AcDbEntity
  8
Layer_1
 62
1
100
AcDbSpline
 70
8
 71
3
 72
8
 73
4
 74
0
 40
0
 40
0
 40
0
 40
0
 40
1
 40
1
 40
1
 40
1
 10
112.550135
 20
2.591009
 30
0.0
 10
112.563945
 20
2.593909
 30
0.0
 10
112.577605
 20
2.597409
 30
0.0
 10
112.591005
 20
2.601859
 30
0.0
  0
SPLINE
  5
1c9
100
AcDbEntity
  8
Layer_1
 62
1
100
AcDbSpline
 70
8
 71
3
 72
8
 73
4
 74
0
 40
0
 40
0
 40
0
 40
0
 40
1
 40
1
 40
1
 40
1
 10
112.591005
 20
2.601859
 30
0.0
 10
112.604265
 20
2.606059
 30
0.0
 10
112.617305
 20
2.611159
 30
0.0
 10
112.630065
 20
2.616939
 30
0.0
  0
SPLINE
  5
1ca
100
AcDbEntity
  8
Layer_1
 62
1
100
AcDbSpline
 70
8
 71
3
 72
8
 73
4
 74
0
 40
0
 40
0
 40
0
 40
0
 40
1
 40
1
 40
1
 40
1
 10
112.630065
 20
2.616939
 30
0.0
 10
112.643025
 20
2.622739
 30
0.0
 10
112.655705
 20
2.629109
 30
0.0
 10
112.667925
 20
2.636259
 30
0.0
  0
SPLINE
  5
1cb
100
AcDbEntity
  8
Layer_1
 62
1
100
AcDbSpline
 70
8
 71
3
 72
8
 73
4
 74
0
 40
0
 40
0
 40
0
 40
0
 40
1
 40
1
 40
1
 40
1
 10
112.667925
 20
2.636259
 30
0.0
 10
112.680175
 20
2.643359
 30
0.0
 10
112.691945
 20
2.651339
 30
0.0
 10
112.703385
 20
2.659809
 30
0.0
  0
SPLINE
  5
1cc
100
AcDbEntity
  8
Layer_1
 62
1
100
AcDbSpline
 70
8
 71
3
 72
8
 73
4
 74
0
 40
0
 40
0
 40
0
 40
0
 40
1
 40
1
 40
1
 40
1
 10
112.703385
 20
2.659809
 30
0.0
 10
112.715215
 20
2.668509
 30
0.0
 10
112.726665
 20
2.677799
 30
0.0
 10
112.737645
 20
2.687459
 30
0.0
  0
SPLINE
  5
1cd
100
AcDbEntity
  8
Layer_1
 62
1
100
AcDbSpline
 70
8
 71
3
 72
8
 73
4
 74
0
 40
0
 40
0
 40
0
 40
0
 40
1
 40
1
 40
1
 40
1
 10
112.737645
 20
2.687459
 30
0.0
 10
112.748965
 20
2.697509
 30
0.0
 10
112.759815
 20
2.708099
 30
0.0
 10
112.770095
 20
2.719319
 30
0.0
  0
SPLINE
  5
1ce
100
AcDbEntity
  8
Layer_1
 62
1
100
AcDbSpline
 70
8
 71
3
 72
8
 73
4
 74
0
 40
0
 40
0
 40
0
 40
0
 40
1
 40
1
 40
1
 40
1
 10
112.770095
 20
2.719319
 30
0.0
 10
112.780495
 20
2.730699
 30
0.0
 10
112.790335
 20
2.742339
 30
0.0
 10
112.799545
 20
2.754769
 30
0.0
  0
SPLINE
  5
1cf
100
AcDbEntity
  8
Layer_1
 62
1
100
AcDbSpline
 70
8
 71
3
 72
8
 73
4
 74
0
 40
0
 40
0
 40
0
 40
0
 40
1
 40
1
 40
1
 40
1
 10
112.799545
 20
2.754769
 30
0.0
 10
112.808745
 20
2.766939
 30
0.0
 10
112.817275
 20
2.779639
 30
0.0
 10
112.825395
 20
2.792629
 30
0.0
  0
SPLINE
  5
1d0
100
AcDbEntity
  8
Layer_1
 62
1
100
AcDbSpline
 70
8
 71
3
 72
8
 73
4
 74
0
 40
0
 40
0
 40
0
 40
0
 40
1
 40
1
 40
1
 40
1
 10
112.825395
 20
2.792629
 30
0.0
 10
112.833395
 20
2.805589
 30
0.0
 10
112.841035
 20
2.818559
 30
0.0
 10
112.847625
 20
2.832289
 30
0.0
  0
SPLINE
  5
1d1
100
AcDbEntity
  8
Layer_1
 62
1
100
AcDbSpline
 70
8
 71
3
 72
8
 73
4
 74
0
 40
0
 40
0
 40
0
 40
0
 40
1
 40
1
 40
1
 40
1
 10
112.847625
 20
2.832289
 30
0.0
 10
112.854325
 20
2.846049
 30
0.0
 10
112.859955
 20
2.860439
 30
0.0
 10
112.865065
 20
2.874939
 30
0.0
  0
SPLINE
  5
1d2
100
AcDbEntity
  8
Layer_1
 62
1
100
AcDbSpline
 70
8
 71
3
 72
8
 73
4
 74
0
 40
0
 40
0
 40
0
 40
0
 40
1
 40
1
 40
1
 40
1
 10
112.865065
 20
2.874939
 30
0.0
 10
112.870265
 20
2.889759
 30
0.0
 10
112.874865
 20
2.904809
 30
0.0
 10
112.878875
 20
2.920029
 30
0.0
  0
SPLINE
  5
1d3
100
AcDbEntity
  8
Layer_1
 62
1
100
AcDbSpline
 70
8
 71
3
 72
8
 73
4
 74
0
 40
0
 40
0
 40
0
 40
0
 40
1
 40
1
 40
1
 40
1
 10
112.878875
 20
2.920029
 30
0.0
 10
112.882975
 20
2.935639
 30
0.0
 10
112.886375
 20
2.951539
 30
0.0
 10
112.889085
 20
2.967499
 30
0.0
  0
SPLINE
  5
1d4
100
AcDbEntity
  8
Layer_1
 62
1
100
AcDbSpline
 70
8
 71
3
 72
8
 73
4
 74
0
 40
0
 40
0
 40
0
 40
0
 40
1
 40
1
 40
1
 40
1
 10
112.889085
 20
2.967499
 30
0.0
 10
112.891885
 20
2.983899
 30
0.0
 10
112.893885
 20
3.000679
 30
0.0
 10
112.895085
 20
3.017399
 30
0.0
  0
SPLINE
  5
1d5
100
AcDbEntity
  8
Layer_1
 62
1
100
AcDbSpline
 70
8
 71
3
 72
8
 73
4
 74
0
 40
0
 40
0
 40
0
 40
0
 40
1
 40
1
 40
1
 40
1
 10
112.895085
 20
3.017399
 30
0.0
 10
112.896385
 20
3.034859
 30
0.0
 10
112.896685
 20
3.052219
 30
0.0
 10
112.896985
 20
3.069679
 30
0.0
  0
SPLINE
  5
1d6
100
AcDbEntity
  8
Layer_1
 62
1
100
AcDbSpline
 70
8
 71
3
 72
8
 73
4
 74
0
 40
0
 40
0
 40
0
 40
0
 40
1
 40
1
 40
1
 40
1
 10
113.435349
 20
3.087716
 30
0.0
 10
113.434249
 20
3.051816
 30
0.0
 10
113.433249
 20
3.015936
 30
0.0
 10
113.430549
 20
2.980136
 30
0.0
  0
SPLINE
  5
1d7
100
AcDbEntity
  8
Layer_1
 62
1
100
AcDbSpline
 70
8
 71
3
 72
8
 73
4
 74
0
 40
0
 40
0
 40
0
 40
0
 40
1
 40
1
 40
1
 40
1
 10
113.430549
 20
2.980136
 30
0.0
 10
113.427849
 20
2.945316
 30
0.0
 10
113.423449
 20
2.910576
 30
0.0
 10
113.417319
 20
2.876181
 30
0.0
  0
SPLINE
  5
1d8
100
AcDbEntity
  8
Layer_1
 62
1
100
AcDbSpline
 70
8
 71
3
 72
8
 73
4
 74
0
 40
0
 40
0
 40
0
 40
0
 40
1
 40
1
 40
1
 40
1
 10
113.417319
 20
2.876181
 30
0.0
 10
113.411319
 20
2.842761
 30
0.0
 10
113.403689
 20
2.809691
 30
0.0
 10
113.394489
 20
2.777021
 30
0.0
  0
SPLINE
  5
1d9
100
AcDbEntity
  8
Layer_1
 62
1
100
AcDbSpline
 70
8
 71
3
 72
8
 73
4
 74
0
 40
0
 40
0
 40
0
 40
0
 40
1
 40
1
 40
1
 40
1
 10
113.394489
 20
2.777021
 30
0.0
 10
113.385489
 20
2.744871
 30
0.0
 10
113.374909
 20
2.713121
 30
0.0
 10
113.362639
 20
2.682061
 30
0.0
  0
SPLINE
  5
1da
100
AcDbEntity
  8
Layer_1
 62
1
100
AcDbSpline
 70
8
 71
3
 72
8
 73
4
 74
0
 40
0
 40
0
 40
0
 40
0
 40
1
 40
1
 40
1
 40
1
 10
113.362639
 20
2.682061
 30
0.0
 10
113.350419
 20
2.651131
 30
0.0
 10
113.336499
 20
2.620861
 30
0.0
 10
113.321169
 20
2.591311
 30
0.0
  0
SPLINE
  5
1db
100
AcDbEntity
  8
Layer_1
 62
1
100
AcDbSpline
 70
8
 71
3
 72
8
 73
4
 74
0
 40
0
 40
0
 40
0
 40
0
 40
1
 40
1
 40
1
 40
1
 10
113.321169
 20
2.591311
 30
0.0
 10
113.305929
 20
2.561891
 30
0.0
 10
113.289309
 20
2.533181
 30
0.0
 10
113.271289
 20
2.505371
 30
0.0
  0
SPLINE
  5
1dc
100
AcDbEntity
  8
Layer_1
 62
1
100
AcDbSpline
 70
8
 71
3
 72
8
 73
4
 74
0
 40
0
 40
0
 40
0
 40
0
 40
1
 40
1
 40
1
 40
1
 10
113.271289
 20
2.505371
 30
0.0
 10
113.252869
 20
2.476951
 30
0.0
 10
113.232979
 20
2.449461
 30
0.0
 10
113.211799
 20
2.423061
 30
0.0
  0
SPLINE
  5
1dd
100
AcDbEntity
  8
Layer_1
 62
1
100
AcDbSpline
 70
8
 71
3
 72
8
 73
4
 74
0
 40
0
 40
0
 40
0
 40
0
 40
1
 40
1
 40
1
 40
1
 10
113.211799
 20
2.423061
 30
0.0
 10
113.190209
 20
2.396131
 30
0.0
 10
113.167289
 20
2.370301
 30
0.0
 10
113.143289
 20
2.345541
 30
0.0
  0
SPLINE
  5
1de
100
AcDbEntity
  8
Layer_1
 62
1
100
AcDbSpline
 70
8
 71
3
 72
8
 73
4
 74
0
 40
0
 40
0
 40
0
 40
0
 40
1
 40
1
 40
1
 40
1
 10
113.143289
 20
2.345541
 30
0.0
 10
113.119319
 20
2.320671
 30
0.0
 10
113.094289
 20
2.297071
 30
0.0
 10
113.068169
 20
2.274601
 30
0.0
  0
SPLINE
  5
1df
100
AcDbEntity
  8
Layer_1
 62
1
100
AcDbSpline
 70
8
 71
3
 72
8
 73
4
 74
0
 40
0
 40
0
 40
0
 40
0
 40
1
 40
1
 40
1
 40
1
 10
113.068169
 20
2.274601
 30
0.0
 10
113.042949
 20
2.252911
 30
0.0
 10
113.016709
 20
2.232401
 30
0.0
 10
112.989439
 20
2.213321
 30
0.0
  0
SPLINE
  5
1e0
100
AcDbEntity
  8
Layer_1
 62
1
100
AcDbSpline
 70
8
 71
3
 72
8
 73
4
 74
0
 40
0
 40
0
 40
0
 40
0
 40
1
 40
1
 40
1
 40
1
 10
112.989439
 20
2.213321
 30
0.0
 10
112.962739
 20
2.194531
 30
0.0
 10
112.935059
 20
2.177341
 30
0.0
 10
112.906509
 20
2.161621
 30
0.0
  0
SPLINE
  5
1e1
100
AcDbEntity
  8
Layer_1
 62
1
100
AcDbSpline
 70
8
 71
3
 72
8
 73
4
 74
0
 40
0
 40
0
 40
0
 40
0
 40
1
 40
1
 40
1
 40
1
 10
112.906509
 20
2.161621
 30
0.0
 10
112.878239
 20
2.146011
 30
0.0
 10
112.849109
 20
2.132091
 30
0.0
 10
112.819369
 20
2.119551
 30
0.0
  0
SPLINE
  5
1e2
100
AcDbEntity
  8
Layer_1
 62
1
100
AcDbSpline
 70
8
 71
3
 72
8
 73
4
 74
0
 40
0
 40
0
 40
0
 40
0
 40
1
 40
1
 40
1
 40
1
 10
112.819369
 20
2.119551
 30
0.0
 10
112.789689
 20
2.107111
 30
0.0
 10
112.759389
 20
2.096001
 30
0.0
 10
112.728629
 20
2.086501
 30
0.0
  0
SPLINE
  5
1e3
100
AcDbEntity
  8
Layer_1
 62
1
100
AcDbSpline
 70
8
 71
3
 72
8
 73
4
 74
0
 40
0
 40
0
 40
0
 40
0
 40
1
 40
1
 40
1
 40
1
 10
112.728629
 20
2.086501
 30
0.0
 10
112.697419
 20
2.076701
 30
0.0
 10
112.665729
 20
2.068771
 30
0.0
 10
112.633679
 20
2.062421
 30
0.0
  0
SPLINE
  5
1e4
100
AcDbEntity
  8
Layer_1
 62
1
100
AcDbSpline
 70
8
 71
3
 72
8
 73
4
 74
0
 40
0
 40
0
 40
0
 40
0
 40
1
 40
1
 40
1
 40
1
 10
112.633679
 20
2.062421
 30
0.0
 10
112.601109
 20
2.056121
 30
0.0
 10
112.568179
 20
2.051311
 30
0.0
 10
112.535119
 20
2.048661
 30
0.0
  0
SPLINE
  5
1e5
100
AcDbEntity
  8
Layer_1
 62
1
100
AcDbSpline
 70
8
 71
3
 72
8
 73
4
 74
0
 40
0
 40
0
 40
0
 40
0
 40
1
 40
1
 40
1
 40
1
 10
112.535119
 20
2.048661
 30
0.0
 10
112.500949
 20
2.045761
 30
0.0
 10
112.466649
 20
2.044961
 30
0.0
 10
112.432355
 20
2.043861
 30
0.0
  0
SPLINE
  5
1e6
100
AcDbEntity
  8
Layer_1
 62
1
100
AcDbSpline
 70
8
 71
3
 72
8
 73
4
 74
0
 40
0
 40
0
 40
0
 40
0
 40
1
 40
1
 40
1
 40
1
 10
112.340398
 20
4.053445
 30
0.0
 10
112.356378
 20
4.057945
 30
0.0
 10
112.372338
 20
4.062445
 30
0.0
 10
112.388478
 20
4.066145
 30
0.0
  0
SPLINE
  5
1e7
100
AcDbEntity
  8
Layer_1
 62
1
100
AcDbSpline
 70
8
 71
3
 72
8
 73
4
 74
0
 40
0
 40
0
 40
0
 40
0
 40
1
 40
1
 40
1
 40
1
 10
112.388478
 20
4.066145
 30
0.0
 10
112.404168
 20
4.069845
 30
0.0
 10
112.420028
 20
4.072745
 30
0.0
 10
112.435958
 20
4.075145
 30
0.0
  0
SPLINE
  5
1e8
100
AcDbEntity
  8
Layer_1
 62
1
100
AcDbSpline
 70
8
 71
3
 72
8
 73
4
 74
0
 40
0
 40
0
 40
0
 40
0
 40
1
 40
1
 40
1
 40
1
 10
112.435958
 20
4.075145
 30
0.0
 10
112.451308
 20
4.077745
 30
0.0
 10
112.466748
 20
4.079345
 30
0.0
 10
112.482228
 20
4.080445
 30
0.0
  0
SPLINE
  5
1e9
100
AcDbEntity
  8
Layer_1
 62
1
100
AcDbSpline
 70
8
 71
3
 72
8
 73
4
 74
0
 40
0
 40
0
 40
0
 40
0
 40
1
 40
1
 40
1
 40
1
 10
112.482228
 20
4.080445
 30
0.0
 10
112.496808
 20
4.080445
 30
0.0
 10
112.511458
 20
4.083045
 30
0.0
 10
112.526098
 20
4.083045
 30
0.0
  0
SPLINE
  5
1ea
100
AcDbEntity
  8
Layer_1
 62
1
100
AcDbSpline
 70
8
 71
3
 72
8
 73
4
 74
0
 40
0
 40
0
 40
0
 40
0
 40
1
 40
1
 40
1
 40
1
 10
112.485230
 20
3.543831
 30
0.0
 10
112.469960
 20
3.543831
 30
0.0
 10
112.454690
 20
3.543831
 30
0.0
 10
112.439560
 20
3.540931
 30
0.0
  0
SPLINE
  5
1eb
100
AcDbEntity
  8
Layer_1
 62
1
100
AcDbSpline
 70
8
 71
3
 72
8
 73
4
 74
0
 40
0
 40
0
 40
0
 40
0
 40
1
 40
1
 40
1
 40
1
 10
112.439560
 20
3.540931
 30
0.0
 10
112.424350
 20
3.538331
 30
0.0
 10
112.409290
 20
3.535931
 30
0.0
 10
112.394490
 20
3.531931
 30
0.0
  0
SPLINE
  5
1ec
100
AcDbEntity
  8
Layer_1
 62
1
100
AcDbSpline
 70
8
 71
3
 72
8
 73
4
 74
0
 40
0
 40
0
 40
0
 40
0
 40
1
 40
1
 40
1
 40
1
 10
112.394490
 20
3.531931
 30
0.0
 10
112.379380
 20
3.527731
 30
0.0
 10
112.364540
 20
3.522631
 30
0.0
 10
112.350020
 20
3.516851
 30
0.0
  0
SPLINE
  5
1ed
100
AcDbEntity
  8
Layer_1
 62
1
100
AcDbSpline
 70
8
 71
3
 72
8
 73
4
 74
0
 40
0
 40
0
 40
0
 40
0
 40
1
 40
1
 40
1
 40
1
 10
112.350020
 20
3.516851
 30
0.0
 10
112.334810
 20
3.510751
 30
0.0
 10
112.319940
 20
3.503621
 30
0.0
 10
112.305550
 20
3.495681
 30
0.0
  0
SPLINE
  5
1ee
100
AcDbEntity
  8
Layer_1
 62
1
100
AcDbSpline
 70
8
 71
3
 72
8
 73
4
 74
0
 40
0
 40
0
 40
0
 40
0
 40
1
 40
1
 40
1
 40
1
 10
112.305550
 20
3.495681
 30
0.0
 10
112.290470
 20
3.487481
 30
0.0
 10
112.275910
 20
3.478221
 30
0.0
 10
112.261680
 20
3.468641
 30
0.0
  0
SPLINE
  5
1ef
100
AcDbEntity
  8
Layer_1
 62
1
100
AcDbSpline
 70
8
 71
3
 72
8
 73
4
 74
0
 40
0
 40
0
 40
0
 40
0
 40
1
 40
1
 40
1
 40
1
 10
112.261680
 20
3.468641
 30
0.0
 10
112.246600
 20
3.458321
 30
0.0
 10
112.231910
 20
3.447741
 30
0.0
 10
112.217810
 20
3.436201
 30
0.0
  0
SPLINE
  5
1f0
100
AcDbEntity
  8
Layer_1
 62
1
100
AcDbSpline
 70
8
 71
3
 72
8
 73
4
 74
0
 40
0
 40
0
 40
0
 40
0
 40
1
 40
1
 40
1
 40
1
 10
112.217810
 20
3.436201
 30
0.0
 10
112.202750
 20
3.423761
 30
0.0
 10
112.188380
 20
3.410801
 30
0.0
 10
112.174540
 20
3.397121
 30
0.0
  0
SPLINE
  5
1f1
100
AcDbEntity
  8
Layer_1
 62
1
100
AcDbSpline
 70
8
 71
3
 72
8
 73
4
 74
0
 40
0
 40
0
 40
0
 40
0
 40
1
 40
1
 40
1
 40
1
 10
112.174540
 20
3.397121
 30
0.0
 10
112.159700
 20
3.382571
 30
0.0
 10
112.145490
 20
3.367271
 30
0.0
 10
112.131270
 20
3.352061
 30
0.0
  0
SPLINE
  5
1f2
100
AcDbEntity
  8
Layer_1
 62
1
100
AcDbSpline
 70
8
 71
3
 72
8
 73
4
 74
0
 40
0
 40
0
 40
0
 40
0
 40
1
 40
1
 40
1
 40
1
 10
112.432346
 20
2.043829
 30
0.0
 10
112.401676
 20
2.043829
 30
0.0
 10
112.371006
 20
2.046429
 30
0.0
 10
112.340396
 20
2.047529
 30
0.0
  0
SPLINE
  5
1f3
100
AcDbEntity
  8
Layer_1
 62
1
100
AcDbSpline
 70
8
 71
3
 72
8
 73
4
 74
0
 40
0
 40
0
 40
0
 40
0
 40
1
 40
1
 40
1
 40
1
 10
112.340396
 20
2.047529
 30
0.0
 10
112.310646
 20
2.050129
 30
0.0
 10
112.280956
 20
2.052529
 30
0.0
 10
112.251456
 20
2.057029
 30
0.0
  0
SPLINE
  5
1f4
100
AcDbEntity
  8
Layer_1
 62
1
100
AcDbSpline
 70
8
 71
3
 72
8
 73
4
 74
0
 40
0
 40
0
 40
0
 40
0
 40
1
 40
1
 40
1
 40
1
 10
112.251456
 20
2.057029
 30
0.0
 10
112.222776
 20
2.061229
 30
0.0
 10
112.194286
 20
2.066829
 30
0.0
 10
112.166116
 20
2.073959
 30
0.0
  0
SPLINE
  5
1f5
100
AcDbEntity
  8
Layer_1
 62
1
100
AcDbSpline
 70
8
 71
3
 72
8
 73
4
 74
0
 40
0
 40
0
 40
0
 40
0
 40
1
 40
1
 40
1
 40
1
 10
112.166116
 20
2.073959
 30
0.0
 10
112.138346
 20
2.080859
 30
0.0
 10
112.110896
 20
2.088779
 30
0.0
 10
112.083786
 20
2.098039
 30
0.0
  0
SPLINE
  5
1f6
100
AcDbEntity
  8
Layer_1
 62
1
100
AcDbSpline
 70
8
 71
3
 72
8
 73
4
 74
0
 40
0
 40
0
 40
0
 40
0
 40
1
 40
1
 40
1
 40
1
 10
112.083786
 20
2.098039
 30
0.0
 10
112.057146
 20
2.107039
 30
0.0
 10
112.030826
 20
2.116829
 30
0.0
 10
112.005056
 20
2.128069
 30
0.0
  0
SPLINE
  5
1f7
100
AcDbEntity
  8
Layer_1
 62
1
100
AcDbSpline
 70
8
 71
3
 72
8
 73
4
 74
0
 40
0
 40
0
 40
0
 40
0
 40
1
 40
1
 40
1
 40
1
 10
112.005056
 20
2.128069
 30
0.0
 10
111.979256
 20
2.139179
 30
0.0
 10
111.953986
 20
2.151619
 30
0.0
 10
111.929336
 20
2.165349
 30
0.0
  0
SPLINE
  5
1f8
100
AcDbEntity
  8
Layer_1
 62
1
100
AcDbSpline
 70
8
 71
3
 72
8
 73
4
 74
0
 40
0
 40
0
 40
0
 40
0
 40
1
 40
1
 40
1
 40
1
 10
111.929336
 20
2.165349
 30
0.0
 10
111.904676
 20
2.178839
 30
0.0
 10
111.880636
 20
2.193579
 30
0.0
 10
111.857216
 20
2.209219
 30
0.0
  0
SPLINE
  5
1f9
100
AcDbEntity
  8
Layer_1
 62
1
100
AcDbSpline
 70
8
 71
3
 72
8
 73
4
 74
0
 40
0
 40
0
 40
0
 40
0
 40
1
 40
1
 40
1
 40
1
 10
111.857216
 20
2.209219
 30
0.0
 10
111.833486
 20
2.225099
 30
0.0
 10
111.810386
 20
2.241839
 30
0.0
 10
111.788106
 20
2.259699
 30
0.0
  0
SPLINE
  5
1fa
100
AcDbEntity
  8
Layer_1
 62
1
100
AcDbSpline
 70
8
 71
3
 72
8
 73
4
 74
0
 40
0
 40
0
 40
0
 40
0
 40
1
 40
1
 40
1
 40
1
 10
111.788106
 20
2.259699
 30
0.0
 10
111.765826
 20
2.277429
 30
0.0
 10
111.744366
 20
2.296399
 30
0.0
 10
111.723806
 20
2.316189
 30
0.0
  0
SPLINE
  5
1fb
100
AcDbEntity
  8
Layer_1
 62
1
100
AcDbSpline
 70
8
 71
3
 72
8
 73
4
 74
0
 40
0
 40
0
 40
0
 40
0
 40
1
 40
1
 40
1
 40
1
 10
111.723806
 20
2.316189
 30
0.0
 10
111.703276
 20
2.336029
 30
0.0
 10
111.683656
 20
2.356619
 30
0.0
 10
111.664906
 20
2.378079
 30
0.0
  0
SPLINE
  5
1fc
100
AcDbEntity
  8
Layer_1
 62
1
100
AcDbSpline
 70
8
 71
3
 72
8
 73
4
 74
0
 40
0
 40
0
 40
0
 40
0
 40
1
 40
1
 40
1
 40
1
 10
111.664906
 20
2.378079
 30
0.0
 10
111.646336
 20
2.399249
 30
0.0
 10
111.628626
 20
2.421369
 30
0.0
 10
111.612026
 20
2.444199
 30
0.0
  0
SPLINE
  5
1fd
100
AcDbEntity
  8
Layer_1
 62
1
100
AcDbSpline
 70
8
 71
3
 72
8
 73
4
 74
0
 40
0
 40
0
 40
0
 40
0
 40
1
 40
1
 40
1
 40
1
 10
111.612026
 20
2.444199
 30
0.0
 10
111.595256
 20
2.467219
 30
0.0
 10
111.579616
 20
2.491139
 30
0.0
 10
111.565146
 20
2.515689
 30
0.0
  0
SPLINE
  5
1fe
100
AcDbEntity
  8
Layer_1
 62
1
100
AcDbSpline
 70
8
 71
3
 72
8
 73
4
 74
0
 40
0
 40
0
 40
0
 40
0
 40
1
 40
1
 40
1
 40
1
 10
111.565146
 20
2.515689
 30
0.0
 10
111.550406
 20
2.540829
 30
0.0
 10
111.536906
 20
2.566459
 30
0.0
 10
111.524286
 20
2.592629
 30
0.0
  0
SPLINE
  5
1ff
100
AcDbEntity
  8
Layer_1
 62
1
100
AcDbSpline
 70
8
 71
3
 72
8
 73
4
 74
0
 40
0
 40
0
 40
0
 40
0
 40
1
 40
1
 40
1
 40
1
 10
111.524286
 20
2.592629
 30
0.0
 10
111.511456
 20
2.619219
 30
0.0
 10
111.499546
 20
2.646259
 30
0.0
 10
111.488826
 20
2.673749
 30
0.0
  0
SPLINE
  5
200
100
AcDbEntity
  8
Layer_1
 62
1
100
AcDbSpline
 70
8
 71
3
 72
8
 73
4
 74
0
 40
0
 40
0
 40
0
 40
0
 40
1
 40
1
 40
1
 40
1
 10
111.488826
 20
2.673749
 30
0.0
 10
111.477766
 20
2.702139
 30
0.0
 10
111.467976
 20
2.731059
 30
0.0
 10
111.459376
 20
2.760299
 30
0.0
  0
SPLINE
  5
201
100
AcDbEntity
  8
Layer_1
 62
1
100
AcDbSpline
 70
8
 71
3
 72
8
 73
4
 74
0
 40
0
 40
0
 40
0
 40
0
 40
1
 40
1
 40
1
 40
1
 10
111.459376
 20
2.760299
 30
0.0
 10
111.450476
 20
2.790519
 30
0.0
 10
111.442916
 20
2.821079
 30
0.0
 10
111.435356
 20
2.851639
 30
0.0
  0
LWPOLYLINE
  5
202
100
AcDbEntity
  8
Layer_1
 62
7
100
AcDbPolyline
 90
2
 70
0
 10
42.120758
 20
43.667975
 30
0.0
 10
42.120758
 20
33.667977
 30
0.0
  0
LWPOLYLINE
  5
203
100
AcDbEntity
  8
Layer_1
 62
1
100
AcDbPolyline
 90
2
 70
0
 10
111.435351
 20
2.851522
 30
0.0
 10
112.050734
 20
2.851522
 30
0.0
  0
LWPOLYLINE
  5
204
100
AcDbEntity
  8
Layer_1
 62
1
100
AcDbPolyline
 90
2
 70
0
 10
112.457587
 20
4.620765
 30
0.0
 10
112.340398
 20
4.053445
 30
0.0
  0
LWPOLYLINE
  5
205
100
AcDbEntity
  8
Layer_1
 62
1
100
AcDbPolyline
 90
2
 70
0
 10
113.396889
 20
4.620765
 30
0.0
 10
112.457587
 20
4.620765
 30
0.0
  0
LWPOLYLINE
  5
206
100
AcDbEntity
  8
Layer_1
 62
1
100
AcDbPolyline
 90
2
 70
0
 10
113.396889
 20
5.120774
 30
0.0
 10
113.396889
 20
4.620765
 30
0.0
  0
LWPOLYLINE
  5
207
100
AcDbEntity
  8
Layer_1
 62
1
100
AcDbPolyline
 90
2
 70
0
 10
112.030904
 20
5.120774
 30
0.0
 10
113.396889
 20
5.120774
 30
0.0
  0
LWPOLYLINE
  5
208
100
AcDbEntity
  8
Layer_1
 62
1
100
AcDbPolyline
 90
2
 70
0
 10
111.678138
 20
3.456095
 30
0.0
 10
112.030904
 20
5.120774
 30
0.0
  0
SPLINE
  5
209
100
AcDbEntity
  8
Layer_1
 62
7
100
AcDbSpline
 70
8
 71
3
 72
8
 73
4
 74
0
 40
0
 40
0
 40
0
 40
0
 40
1
 40
1
 40
1
 40
1
 10
91.412274
 20
42.120761
 30
0.0
 10
91.412659
 20
43.157088
 30
0.0
 10
90.860006
 20
44.114858
 30
0.0
 10
89.962585
 20
44.633133
 30
0.0
  0
SPLINE
  5
20a
100
AcDbEntity
  8
Layer_1
 62
7
100
AcDbSpline
 70
8
 71
3
 72
8
 73
4
 74
0
 40
0
 40
0
 40
0
 40
0
 40
1
 40
1
 40
1
 40
1
 10
89.962585
 20
44.633133
 30
0.0
 10
89.065164
 20
45.151407
 30
0.0
 10
87.959384
 20
45.151407
 30
0.0
 10
87.061963
 20
44.633133
 30
0.0
  0
SPLINE
  5
20b
100
AcDbEntity
  8
Layer_1
 62
7
100
AcDbSpline
 70
8
 71
3
 72
8
 73
4
 74
0
 40
0
 40
0
 40
0
 40
0
 40
1
 40
1
 40
1
 40
1
 10
87.061963
 20
44.633133
 30
0.0
 10
86.164542
 20
44.114858
 30
0.0
 10
85.611889
 20
43.157088
 30
0.0
 10
85.612274
 20
42.120761
 30
0.0
  0
SPLINE
  5
20c
100
AcDbEntity
  8
Layer_1
 62
7
100
AcDbSpline
 70
8
 71
3
 72
8
 73
4
 74
0
 40
0
 40
0
 40
0
 40
0
 40
1
 40
1
 40
1
 40
1
 10
85.612274
 20
42.120761
 30
0.0
 10
85.611889
 20
41.084435
 30
0.0
 10
86.164542
 20
40.126664
 30
0.0
 10
87.061963
 20
39.608390
 30
0.0
  0
SPLINE
  5
20d
100
AcDbEntity
  8
Layer_1
 62
7
100
AcDbSpline
 70
8
 71
3
 72
8
 73
4
 74
0
 40
0
 40
0
 40
0
 40
0
 40
1
 40
1
 40
1
 40
1
 10
87.061963
 20
39.608390
 30
0.0
 10
87.959384
 20
39.090115
 30
0.0
 10
89.065164
 20
39.090115
 30
0.0
 10
89.962585
 20
39.608390
 30
0.0
  0
SPLINE
  5
20e
100
AcDbEntity
  8
Layer_1
 62
7
100
AcDbSpline
 70
8
 71
3
 72
8
 73
4
 74
0
 40
0
 40
0
 40
0
 40
0
 40
1
 40
1
 40
1
 40
1
 10
89.962585
 20
39.608390
 30
0.0
 10
90.860006
 20
40.126664
 30
0.0
 10
91.412659
 20
41.084435
 30
0.0
 10
91.412274
 20
42.120761
 30
0.0
  0
LWPOLYLINE
  5
20f
100
AcDbEntity
  8
Layer_1
 62
1
100
AcDbPolyline
 90
2
 70
0
 10
112.131263
 20
3.352140
 30
0.0
 10
111.678138
 20
3.456095
 30
0.0
  0
SPLINE
  5
210
100
AcDbEntity
  8
Layer_1
 62
7
100
AcDbSpline
 70
8
 71
3
 72
8
 73
4
 74
0
 40
0
 40
0
 40
0
 40
0
 40
1
 40
1
 40
1
 40
1
 10
105.162273
 20
13.120769
 30
0.0
 10
105.162273
 20
14.156839
 30
0.0
 10
104.609536
 20
15.114208
 30
0.0
 10
103.712273
 20
15.632243
 30
0.0
  0
SPLINE
  5
211
100
AcDbEntity
  8
Layer_1
 62
7
100
AcDbSpline
 70
8
 71
3
 72
8
 73
4
 74
0
 40
0
 40
0
 40
0
 40
0
 40
1
 40
1
 40
1
 40
1
 10
103.712273
 20
15.632243
 30
0.0
 10
102.815010
 20
16.150278
 30
0.0
 10
101.709536
 20
16.150278
 30
0.0
 10
100.812273
 20
15.632243
 30
0.0
  0
SPLINE
  5
212
100
AcDbEntity
  8
Layer_1
 62
7
100
AcDbSpline
 70
8
 71
3
 72
8
 73
4
 74
0
 40
0
 40
0
 40
0
 40
0
 40
1
 40
1
 40
1
 40
1
 10
100.812273
 20
15.632243
 30
0.0
 10
99.915010
 20
15.114208
 30
0.0
 10
99.362273
 20
14.156839
 30
0.0
 10
99.362273
 20
13.120769
 30
0.0
  0
SPLINE
  5
213
100
AcDbEntity
  8
Layer_1
 62
7
100
AcDbSpline
 70
8
 71
3
 72
8
 73
4
 74
0
 40
0
 40
0
 40
0
 40
0
 40
1
 40
1
 40
1
 40
1
 10
99.362273
 20
13.120769
 30
0.0
 10
99.362273
 20
12.084699
 30
0.0
 10
99.915010
 20
11.127331
 30
0.0
 10
100.812273
 20
10.609296
 30
0.0
  0
SPLINE
  5
214
100
AcDbEntity
  8
Layer_1
 62
7
100
AcDbSpline
 70
8
 71
3
 72
8
 73
4
 74
0
 40
0
 40
0
 40
0
 40
0
 40
1
 40
1
 40
1
 40
1
 10
100.812273
 20
10.609296
 30
0.0
 10
101.709536
 20
10.091260
 30
0.0
 10
102.815010
 20
10.091260
 30
0.0
 10
103.712273
 20
10.609296
 30
0.0
  0
SPLINE
  5
215
100
AcDbEntity
  8
Layer_1
 62
7
100
AcDbSpline
 70
8
 71
3
 72
8
 73
4
 74
0
 40
0
 40
0
 40
0
 40
0
 40
1
 40
1
 40
1
 40
1
 10
103.712273
 20
10.609296
 30
0.0
 10
104.609536
 20
11.127331
 30
0.0
 10
105.162273
 20
12.084699
 30
0.0
 10
105.162273
 20
13.120769
 30
0.0
  0
LWPOLYLINE
  5
216
100
AcDbEntity
  8
Layer_1
 62
7
100
AcDbPolyline
 90
1
 70
1
 10
91.412274
 20
42.120761
 30
0.0
  0
SPLINE
  5
217
100
AcDbEntity
  8
Layer_1
 62
7
100
AcDbSpline
 70
8
 71
3
 72
8
 73
4
 74
0
 40
0
 40
0
 40
0
 40
0
 40
1
 40
1
 40
1
 40
1
 10
77.662274
 20
13.120769
 30
0.0
 10
77.662274
 20
14.156839
 30
0.0
 10
77.109537
 20
15.114208
 30
0.0
 10
76.212274
 20
15.632243
 30
0.0
  0
SPLINE
  5
218
100
AcDbEntity
  8
Layer_1
 62
7
100
AcDbSpline
 70
8
 71
3
 72
8
 73
4
 74
0
 40
0
 40
0
 40
0
 40
0
 40
1
 40
1
 40
1
 40
1
 10
76.212274
 20
15.632243
 30
0.0
 10
75.315011
 20
16.150278
 30
0.0
 10
74.209537
 20
16.150278
 30
0.0
 10
73.312274
 20
15.632243
 30
0.0
  0
SPLINE
  5
219
100
AcDbEntity
  8
Layer_1
 62
7
100
AcDbSpline
 70
8
 71
3
 72
8
 73
4
 74
0
 40
0
 40
0
 40
0
 40
0
 40
1
 40
1
 40
1
 40
1
 10
73.312274
 20
15.632243
 30
0.0
 10
72.415011
 20
15.114208
 30
0.0
 10
71.862274
 20
14.156839
 30
0.0
 10
71.862274
 20
13.120769
 30
0.0
  0
SPLINE
  5
21a
100
AcDbEntity
  8
Layer_1
 62
7
100
AcDbSpline
 70
8
 71
3
 72
8
 73
4
 74
0
 40
0
 40
0
 40
0
 40
0
 40
1
 40
1
 40
1
 40
1
 10
71.862274
 20
13.120769
 30
0.0
 10
71.862274
 20
12.084699
 30
0.0
 10
72.415011
 20
11.127331
 30
0.0
 10
73.312274
 20
10.609295
 30
0.0
  0
SPLINE
  5
21b
100
AcDbEntity
  8
Layer_1
 62
7
100
AcDbSpline
 70
8
 71
3
 72
8
 73
4
 74
0
 40
0
 40
0
 40
0
 40
0
 40
1
 40
1
 40
1
 40
1
 10
73.312274
 20
10.609295
 30
0.0
 10
74.209537
 20
10.091260
 30
0.0
 10
75.315011
 20
10.091260
 30
0.0
 10
76.212274
 20
10.609295
 30
0.0
  0
SPLINE
  5
21c
100
AcDbEntity
  8
Layer_1
 62
7
100
AcDbSpline
 70
8
 71
3
 72
8
 73
4
 74
0
 40
0
 40
0
 40
0
 40
0
 40
1
 40
1
 40
1
 40
1
 10
76.212274
 20
10.609295
 30
0.0
 10
77.109537
 20
11.127331
 30
0.0
 10
77.662274
 20
12.084699
 30
0.0
 10
77.662274
 20
13.120769
 30
0.0
  0
LWPOLYLINE
  5
21d
100
AcDbEntity
  8
Layer_1
 62
7
100
AcDbPolyline
 90
1
 70
1
 10
105.162273
 20
13.120769
 30
0.0
  0
LWPOLYLINE
  5
21e
100
AcDbEntity
  8
Layer_1
 62
7
100
AcDbPolyline
 90
1
 70
1
 10
77.662274
 20
13.120769
 30
0.0
  0
LWPOLYLINE
  5
21f
100
AcDbEntity
  8
Layer_1
 62
7
100
AcDbPolyline
 90
3
 70
0
 10
100.012272
 20
43.620760
 30
0.0
 10
100.012272
 20
33.620762
 30
0.0
 10
103.012274
 20
33.620762
 30
0.0
  0
LWPOLYLINE
  5
220
100
AcDbEntity
  8
Layer_1
 62
7
100
AcDbPolyline
 90
2
 70
0
 10
100.012272
 20
43.620760
 30
0.0
 10
103.012274
 20
43.620760
 30
0.0
  0
LWPOLYLINE
  5
221
100
AcDbEntity
  8
Layer_1
 62
7
100
AcDbPolyline
 90
2
 70
0
 10
81.012274
 20
29.120758
 30
0.0
 10
96.012272
 20
29.120758
 30
0.0
  0
LWPOLYLINE
  5
222
100
AcDbEntity
  8
Layer_1
 62
7
100
AcDbPolyline
 90
2
 70
0
 10
81.012274
 20
26.120753
 30
0.0
 10
81.012274
 20
29.120758
 30
0.0
  0
LWPOLYLINE
  5
223
100
AcDbEntity
  8
Layer_1
 62
7
100
AcDbPolyline
 90
3
 70
0
 10
81.012274
 20
26.120753
 30
0.0
 10
96.012272
 20
26.120753
 30
0.0
 10
96.012272
 20
29.120758
 30
0.0
  0
LWPOLYLINE
  5
224
100
AcDbEntity
  8
Layer_1
 62
7
100
AcDbPolyline
 90
2
 70
0
 10
64.012274
 20
26.120753
 30
0.0
 10
67.012274
 20
26.120753
 30
0.0
  0
LWPOLYLINE
  5
225
100
AcDbEntity
  8
Layer_1
 62
7
100
AcDbPolyline
 90
2
 70
0
 10
64.012274
 20
3.120762
 30
0.0
 10
64.012274
 20
26.120753
 30
0.0
  0
LWPOLYLINE
  5
226
100
AcDbEntity
  8
Layer_1
 62
7
100
AcDbPolyline
 90
3
 70
0
 10
64.012274
 20
3.120762
 30
0.0
 10
67.012274
 20
3.120762
 30
0.0
 10
67.012274
 20
26.120753
 30
0.0
  0
LWPOLYLINE
  5
227
100
AcDbEntity
  8
Layer_1
 62
7
100
AcDbPolyline
 90
2
 70
0
 10
113.012273
 20
49.120760
 30
0.0
 10
100.012272
 20
49.120760
 30
0.0
  0
LWPOLYLINE
  5
228
100
AcDbEntity
  8
Layer_1
 62
7
100
AcDbPolyline
 90
2
 70
0
 10
113.012273
 20
52.120762
 30
0.0
 10
113.012273
 20
49.120760
 30
0.0
  0
LWPOLYLINE
  5
229
100
AcDbEntity
  8
Layer_1
 62
7
100
AcDbPolyline
 90
3
 70
0
 10
113.012273
 20
52.120762
 30
0.0
 10
100.012272
 20
52.120762
 30
0.0
 10
100.012272
 20
49.120760
 30
0.0
  0
LWPOLYLINE
  5
22a
100
AcDbEntity
  8
Layer_1
 62
7
100
AcDbPolyline
 90
2
 70
0
 10
78.512274
 20
3.120762
 30
0.0
 10
86.876808
 20
3.120762
 30
0.0
  0
LWPOLYLINE
  5
22b
100
AcDbEntity
  8
Layer_1
 62
7
100
AcDbPolyline
 90
2
 70
0
 10
78.512274
 20
0.120758
 30
0.0
 10
78.512274
 20
3.120762
 30
0.0
  0
LWPOLYLINE
  5
22c
100
AcDbEntity
  8
Layer_1
 62
7
100
AcDbPolyline
 90
2
 70
0
 10
61.012274
 20
0.120758
 30
0.0
 10
78.512274
 20
0.120758
 30
0.0
  0
LWPOLYLINE
  5
22d
100
AcDbEntity
  8
Layer_1
 62
7
100
AcDbPolyline
 90
3
 70
0
 10
61.012274
 20
0.120758
 30
0.0
 10
61.012274
 20
55.120761
 30
0.0
 10
116.012274
 20
55.120761
 30
0.0
  0
LWPOLYLINE
  5
22e
100
AcDbEntity
  8
Layer_1
 62
7
100
AcDbPolyline
 90
2
 70
0
 10
116.012274
 20
37.620762
 30
0.0
 10
116.012274
 20
55.120761
 30
0.0
  0
LWPOLYLINE
  5
22f
100
AcDbEntity
  8
Layer_1
 62
7
100
AcDbPolyline
 90
3
 70
0
 10
116.012274
 20
37.620762
 30
0.0
 10
113.012273
 20
37.620762
 30
0.0
 10
113.012273
 20
29.120758
 30
0.0
  0
LWPOLYLINE
  5
230
100
AcDbEntity
  8
Layer_1
 62
7
100
AcDbPolyline
 90
2
 70
0
 10
107.712274
 20
29.120758
 30
0.0
 10
113.012273
 20
29.120758
 30
0.0
  0
LWPOLYLINE
  5
231
100
AcDbEntity
  8
Layer_1
 62
7
100
AcDbPolyline
 90
2
 70
0
 10
107.712274
 20
30.370755
 30
0.0
 10
107.712274
 20
29.120758
 30
0.0
  0
LWPOLYLINE
  5
232
100
AcDbEntity
  8
Layer_1
 62
7
100
AcDbPolyline
 90
2
 70
0
 10
105.312273
 20
30.370755
 30
0.0
 10
107.712274
 20
30.370755
 30
0.0
  0
LWPOLYLINE
  5
233
100
AcDbEntity
  8
Layer_1
 62
7
100
AcDbPolyline
 90
10
 70
0
 10
105.312273
 20
30.370755
 30
0.0
 10
105.312273
 20
29.120758
 30
0.0
 10
100.012272
 20
29.120758
 30
0.0
 10
100.012272
 20
26.120753
 30
0.0
 10
105.312273
 20
26.120753
 30
0.0
 10
105.312273
 20
24.870756
 30
0.0
 10
107.712274
 20
24.870756
 30
0.0
 10
107.712274
 20
26.120753
 30
0.0
 10
113.012273
 20
26.120753
 30
0.0
 10
113.012273
 20
17.620749
 30
0.0
  0
LWPOLYLINE
  5
234
100
AcDbEntity
  8
Layer_1
 62
7
100
AcDbPolyline
 90
2
 70
0
 10
116.012274
 20
17.620749
 30
0.0
 10
113.012273
 20
17.620749
 30
0.0
  0
LWPOLYLINE
  5
235
100
AcDbEntity
  8
Layer_1
 62
7
100
AcDbPolyline
 90
2
 70
0
 10
116.012274
 20
0.120758
 30
0.0
 10
116.012274
 20
17.620749
 30
0.0
  0
LWPOLYLINE
  5
236
100
AcDbEntity
  8
Layer_1
 62
7
100
AcDbPolyline
 90
2
 70
0
 10
98.512273
 20
0.120758
 30
0.0
 10
116.012274
 20
0.120758
 30
0.0
  0
LWPOLYLINE
  5
237
100
AcDbEntity
  8
Layer_1
 62
7
100
AcDbPolyline
 90
2
 70
0
 10
98.512273
 20
0.120758
 30
0.0
 10
98.512273
 20
3.120762
 30
0.0
  0
LWPOLYLINE
  5
238
100
AcDbEntity
  8
Layer_1
 62
7
100
AcDbPolyline
 90
2
 70
0
 10
90.147738
 20
3.120762
 30
0.0
 10
98.512273
 20
3.120762
 30
0.0
  0
LWPOLYLINE
  5
239
100
AcDbEntity
  8
Layer_1
 62
7
100
AcDbPolyline
 90
2
 70
0
 10
90.147738
 20
8.316967
 30
0.0
 10
90.147738
 20
3.120762
 30
0.0
  0
LWPOLYLINE
  5
23a
100
AcDbEntity
  8
Layer_1
 62
7
100
AcDbPolyline
 90
2
 70
0
 10
91.397738
 20
8.316967
 30
0.0
 10
90.147738
 20
8.316967
 30
0.0
  0
LWPOLYLINE
  5
23b
100
AcDbEntity
  8
Layer_1
 62
7
100
AcDbPolyline
 90
2
 70
0
 10
91.397738
 20
10.716976
 30
0.0
 10
91.397738
 20
8.316967
 30
0.0
  0
LWPOLYLINE
  5
23c
100
AcDbEntity
  8
Layer_1
 62
7
100
AcDbPolyline
 90
9
 70
0
 10
91.397738
 20
10.716976
 30
0.0
 10
90.147738
 20
10.716976
 30
0.0
 10
90.147738
 20
16.120773
 30
0.0
 10
87.147739
 20
16.120773
 30
0.0
 10
87.147739
 20
10.716976
 30
0.0
 10
85.897739
 20
10.716976
 30
0.0
 10
85.897739
 20
8.316967
 30
0.0
 10
86.876808
 20
8.316967
 30
0.0
 10
86.876808
 20
3.120762
 30
0.0
  0
LWPOLYLINE
  5
23d
100
AcDbEntity
  8
Layer_1
 62
7
100
AcDbPolyline
 90
2
 70
0
 10
103.012274
 20
43.620760
 30
0.0
 10
103.012274
 20
33.620762
 30
0.0
  0
ENDSEC
  0
SECTION
  2
OBJECTS
  0
DICTIONARY
  5
C
330
0
100
AcDbDictionary
  3
ACAD_GROUP
350
D
  3
ACAD_MLINESTYLE
350
17
  0
DICTIONARY
  5
D
330
C
100
AcDbDictionary
  0
DICTIONARY
  5
1A
330
C
100
AcDbDictionary
  0
DICTIONARY
  5
17
330
C
100
AcDbDictionary
  3
STANDARD
350
18
  0
DICTIONARY
  5
19
330
C
100
AcDbDictionary
  0
ENDSEC
  0
EOF
